  0
SECTION
  2
HEADER
  9
$ACADVER
  1
AC1014
  9
$ACADMAINTVER
 70
     9
  9
$DWGCODEPAGE
  3
ANSI_1252
  9
$INSBASE
 10
0.0
 20
0.0
 30
0.0
  9
$EXTMIN
 10
-82.6938798197
 20
-82.6938798197
 30
0.0
  9
$EXTMAX
 10
82.6938798197
 20
82.6938798197
 30
0.0
  9
$LIMMIN
 10
0.0
 20
0.0
  9
$LIMMAX
 10
420.0
 20
297.0
  9
$ORTHOMODE
 70
     0
  9
$REGENMODE
 70
     1
  9
$FILLMODE
 70
     1
  9
$QTEXTMODE
 70
     0
  9
$MIRRTEXT
 70
     1
  9
$DRAGMODE
 70
     2
  9
$LTSCALE
 40
1.0
  9
$OSMODE
 70
    37
  9
$ATTMODE
 70
     1
  9
$TEXTSIZE
 40
3.5
  9
$TRACEWID
 40
1.0
  9
$TEXTSTYLE
  7
STANDARD
  9
$CLAYER
  8
0
  9
$CELTYPE
  6
BYLAYER
  9
$CECOLOR
 62
   256
  9
$CELTSCALE
 40
1.0
  9
$DELOBJ
 70
     1
  9
$DISPSILH
 70
     0
  9
$DIMSCALE
 40
1.0
  9
$DIMASZ
 40
3.556
  9
$DIMEXO
 40
0.0
  9
$DIMDLI
 40
3.75
  9
$DIMRND
 40
0.0
  9
$DIMDLE
 40
0.0
  9
$DIMEXE
 40
1.0
  9
$DIMTP
 40
0.0
  9
$DIMTM
 40
0.0
  9
$DIMTXT
 40
3.5
  9
$DIMCEN
 40
2.5
  9
$DIMTSZ
 40
0.0
  9
$DIMTOL
 70
     0
  9
$DIMLIM
 70
     0
  9
$DIMTIH
 70
     1
  9
$DIMTOH
 70
     1
  9
$DIMSE1
 70
     0
  9
$DIMSE2
 70
     0
  9
$DIMTAD
 70
     1
  9
$DIMZIN
 70
     1
  9
$DIMBLK
  1

  9
$DIMASO
 70
     1
  9
$DIMSHO
 70
     1
  9
$DIMPOST
  1

  9
$DIMAPOST
  1

  9
$DIMALT
 70
     0
  9
$DIMALTD
 70
     3
  9
$DIMALTF
 40
0.0393700787
  9
$DIMLFAC
 40
1.0
  9
$DIMTOFL
 70
     1
  9
$DIMTVP
 40
0.0
  9
$DIMTIX
 70
     0
  9
$DIMSOXD
 70
     0
  9
$DIMSAH
 70
     0
  9
$DIMBLK1
  1

  9
$DIMBLK2
  1

  9
$DIMSTYLE
  2
ISO-25
  9
$DIMCLRD
 70
     0
  9
$DIMCLRE
 70
     0
  9
$DIMCLRT
 70
     0
  9
$DIMTFAC
 40
1.0
  9
$DIMGAP
 40
1.524
  9
$DIMJUST
 70
     0
  9
$DIMSD1
 70
     0
  9
$DIMSD2
 70
     0
  9
$DIMTOLJ
 70
     0
  9
$DIMTZIN
 70
     1
  9
$DIMALTZ
 70
     0
  9
$DIMALTTZ
 70
     0
  9
$DIMFIT
 70
     3
  9
$DIMUPT
 70
     0
  9
$DIMUNIT
 70
     2
  9
$DIMDEC
 70
     2
  9
$DIMTDEC
 70
     2
  9
$DIMALTU
 70
     2
  9
$DIMALTTD
 70
     3
  9
$DIMTXSTY
  7
STANDARD
  9
$DIMAUNIT
 70
     0
  9
$LUNITS
 70
     2
  9
$LUPREC
 70
     2
  9
$SKETCHINC
 40
1.0
  9
$FILLETRAD
 40
0.0
  9
$AUNITS
 70
     0
  9
$AUPREC
 70
     2
  9
$MENU
  1
.
  9
$ELEVATION
 40
0.0
  9
$PELEVATION
 40
0.0
  9
$THICKNESS
 40
0.0
  9
$LIMCHECK
 70
     0
  9
$CHAMFERA
 40
0.0
  9
$CHAMFERB
 40
0.0
  9
$CHAMFERC
 40
0.0
  9
$CHAMFERD
 40
0.0
  9
$SKPOLY
 70
     0
  9
$TDCREATE
 40
2460277.547200752
  9
$TDUPDATE
 40
2460277.547285127
  9
$TDINDWG
 40
0.0000000116
  9
$TDUSRTIMER
 40
0.0000000116
  9
$USRTIMER
 70
     1
  9
$ANGBASE
 50
0.0
  9
$ANGDIR
 70
     0
  9
$PDMODE
 70
     0
  9
$PDSIZE
 40
-1.0
  9
$PLINEWID
 40
0.0
  9
$COORDS
 70
     1
  9
$SPLFRAME
 70
     0
  9
$SPLINETYPE
 70
     6
  9
$SPLINESEGS
 70
     8
  9
$ATTDIA
 70
     0
  9
$ATTREQ
 70
     1
  9
$HANDLING
 70
     1
  9
$HANDSEED
  5
2A6
  9
$SURFTAB1
 70
     6
  9
$SURFTAB2
 70
     6
  9
$SURFTYPE
 70
     6
  9
$SURFU
 70
     6
  9
$SURFV
 70
     6
  9
$UCSNAME
  2

  9
$UCSORG
 10
0.0
 20
0.0
 30
0.0
  9
$UCSXDIR
 10
1.0
 20
0.0
 30
0.0
  9
$UCSYDIR
 10
0.0
 20
1.0
 30
0.0
  9
$PUCSNAME
  2

  9
$PUCSORG
 10
0.0
 20
0.0
 30
0.0
  9
$PUCSXDIR
 10
1.0
 20
0.0
 30
0.0
  9
$PUCSYDIR
 10
0.0
 20
1.0
 30
0.0
  9
$USERI1
 70
     0
  9
$USERI2
 70
     0
  9
$USERI3
 70
     0
  9
$USERI4
 70
     0
  9
$USERI5
 70
     0
  9
$USERR1
 40
0.0
  9
$USERR2
 40
0.0
  9
$USERR3
 40
0.0
  9
$USERR4
 40
0.0
  9
$USERR5
 40
0.0
  9
$WORLDVIEW
 70
     1
  9
$SHADEDGE
 70
     3
  9
$SHADEDIF
 70
    70
  9
$TILEMODE
 70
     1
  9
$MAXACTVP
 70
    64
  9
$PINSBASE
 10
0.0
 20
0.0
 30
0.0
  9
$PLIMCHECK
 70
     0
  9
$PEXTMIN
 10
1.0000000000E+20
 20
1.0000000000E+20
 30
1.0000000000E+20
  9
$PEXTMAX
 10
-1.0000000000E+20
 20
-1.0000000000E+20
 30
-1.0000000000E+20
  9
$PLIMMIN
 10
0.0
 20
0.0
  9
$PLIMMAX
 10
420.0
 20
297.0
  9
$UNITMODE
 70
     0
  9
$VISRETAIN
 70
     1
  9
$PLINEGEN
 70
     0
  9
$PSLTSCALE
 70
     1
  9
$TREEDEPTH
 70
  3020
  9
$PICKSTYLE
 70
     1
  9
$CMLSTYLE
  2
STANDARD
  9
$CMLJUST
 70
     0
  9
$CMLSCALE
 40
20.0
  9
$PROXYGRAPHICS
 70
     1
  9
$MEASUREMENT
 70
     1
  0
ENDSEC
  0
SECTION
  2
CLASSES
  0
CLASS
  1
ACDBDICTIONARYWDFLT
  2
AcDbDictionaryWithDefault
  3
ObjectDBX Classes
 90
        0
280
     0
281
     0
  0
CLASS
  1
VISUALSTYLE
  2
AcDbVisualStyle
  3
ObjectDBX Classes
 90
     4095
280
     0
281
     0
  0
CLASS
  1
MATERIAL
  2
AcDbMaterial
  3
ObjectDBX Classes
 90
     1153
280
     0
281
     0
  0
CLASS
  1
SCALE
  2
AcDbScale
  3
ObjectDBX Classes
 90
     1153
280
     0
281
     0
  0
CLASS
  1
TABLESTYLE
  2
AcDbTableStyle
  3
ObjectDBX Classes
 90
     4095
280
     0
281
     0
  0
CLASS
  1
MLEADERSTYLE
  2
AcDbMLeaderStyle
  3
ACDB_MLEADERSTYLE_CLASS
 90
     4095
280
     0
281
     0
  0
CLASS
  1
SUN
  2
AcDbSun
  3
SCENEOE
 90
     1153
280
     0
281
     0
  0
CLASS
  1
XRECORD
  2
AcDbXrecord
  3
ObjectDBX Classes
 90
        0
280
     0
281
     0
  0
CLASS
  1
LWPOLYLINE
  2
AcDbPolyline
  3
ObjectDBX Classes
 90
        0
280
     0
281
     1
  0
CLASS
  1
HATCH
  2
AcDbHatch
  3
ObjectDBX Classes
 90
        0
280
     0
281
     1
  0
ENDSEC
  0
SECTION
  2
TABLES
  0
TABLE
  2
VPORT
  5
8
330
0
100
AcDbSymbolTable
 70
     1
  0
VPORT
  5
29
330
8
100
AcDbSymbolTableRecord
100
AcDbViewportTableRecord
  2
*ACTIVE
 70
     0
 10
0.0
 20
0.0
 11
1.0
 21
1.0
 12
0.0
 22
0.0
 13
0.0
 23
0.0
 14
10.0
 24
10.0
 15
10.0
 25
10.0
 16
0.0
 26
0.0
 36
1.0
 17
0.0
 27
0.0
 37
0.0
 40
168.6955148322
 41
1.0
 42
50.0
 43
0.0
 44
0.0
 50
0.0
 51
0.0
 71
     0
 72
   100
 73
     1
 74
     3
 75
     0
 76
     0
 77
     0
 78
     0
  0
ENDTAB
  0
TABLE
  2
LTYPE
  5
5
330
0
100
AcDbSymbolTable
 70
     6
  0
LTYPE
  5
14
330
5
100
AcDbSymbolTableRecord
100
AcDbLinetypeTableRecord
  2
BYBLOCK
 70
     0
  3

 72
    65
 73
     0
 40
0.0
  0
LTYPE
  5
15
330
5
100
AcDbSymbolTableRecord
100
AcDbLinetypeTableRecord
  2
BYLAYER
 70
     0
  3

 72
    65
 73
     0
 40
0.0
  0
LTYPE
  5
16
330
5
100
AcDbSymbolTableRecord
100
AcDbLinetypeTableRecord
  2
CONTINUOUS
 70
     0
  3
Solid line
 72
    65
 73
     0
 40
0.0
  0
LTYPE
  5
5E
330
5
100
AcDbSymbolTableRecord
100
AcDbLinetypeTableRecord
  2
HIDDEN
 70
     0
  3
Hidden __ __ __ __ __ __ __ __ __ __ __ __ __ __
 72
    65
 73
     2
 40
1.905
 49
1.27
 74
     0
 49
-0.635
 74
     0
  0
LTYPE
  5
5F
330
5
100
AcDbSymbolTableRecord
100
AcDbLinetypeTableRecord
  2
PHANTOM
 70
     0
  3
Phantom ______  __  __  ______  __  __  ______
 72
    65
 73
     6
 40
12.7
 49
6.35
 74
     0
 49
-1.27
 74
     0
 49
1.27
 74
     0
 49
-1.27
 74
     0
 49
1.27
 74
     0
 49
-1.27
 74
     0
  0
LTYPE
  5
60
330
5
100
AcDbSymbolTableRecord
100
AcDbLinetypeTableRecord
  2
CENTER
 70
     0
  3
Center ____ _ ____ _ ____ _ ____ _ ____ _ ____
 72
    65
 73
     4
 40
10.16
 49
6.35
 74
     0
 49
-1.27
 74
     0
 49
1.27
 74
     0
 49
-1.27
 74
     0
  0
LTYPE
  5
61
330
5
100
AcDbSymbolTableRecord
100
AcDbLinetypeTableRecord
  2
CENTERX2
 70
     0
  3
Center (2x) ________  __  ________  __  _____
 72
    65
 73
     4
 40
20.32
 49
12.7
 74
     0
 49
-2.54
 74
     0
 49
2.54
 74
     0
 49
-2.54
 74
     0
  0
LTYPE
  5
62
330
5
100
AcDbSymbolTableRecord
100
AcDbLinetypeTableRecord
  2
DOT2
 70
     0
  3
Dot (.5x) ........................................
 72
    65
 73
     2
 40
0.635
 49
0.0
 74
     0
 49
-0.635
 74
     0
  0
ENDTAB
  0
TABLE
  2
LAYER
  5
2
330
0
100
AcDbSymbolTable
 70
     1
  0
LAYER
  5
10
330
2
100
AcDbSymbolTableRecord
100
AcDbLayerTableRecord
  2
0
 70
     0
 62
     7
  6
CONTINUOUS
  0
ENDTAB
  0
TABLE
  2
STYLE
  5
3
330
0
100
AcDbSymbolTable
 70
     1
  0
STYLE
  5
11
330
3
100
AcDbSymbolTableRecord
100
AcDbTextStyleTableRecord
  2
STANDARD
 70
     0
 40
0.0
 41
1.0
 50
0.0
 71
     0
 42
3.5
  3
txt
  4

  0
ENDTAB
  0
TABLE
  2
VIEW
  5
6
330
0
100
AcDbSymbolTable
 70
     0
  0
ENDTAB
  0
TABLE
  2
UCS
  5
7
330
0
100
AcDbSymbolTable
 70
     0
  0
ENDTAB
  0
TABLE
  2
APPID
  5
9
330
0
100
AcDbSymbolTable
 70
     1
  0
APPID
  5
12
330
9
100
AcDbSymbolTableRecord
100
AcDbRegAppTableRecord
  2
ACAD
 70
     0
  0
ENDTAB
  0
TABLE
  2
DIMSTYLE
  5
A
330
0
100
AcDbSymbolTable
 70
     1
  0
DIMSTYLE
105
27
330
A
100
AcDbSymbolTableRecord
100
AcDbDimStyleTableRecord
  2
ISO-25
 70
     0
  3

  4

  5

  6

  7

 40
1.0
 41
2.5
 42
0.625
 43
3.75
 44
1.25
 45
0.0
 46
0.0
 47
0.0
 48
0.0
140
2.5
141
2.5
142
0.0
143
0.0393700787
144
1.0
145
0.0
146
1.0
147
0.625
 71
     0
 72
     0
 73
     0
 74
     0
 75
     0
 76
     0
 77
     1
 78
     8
170
     0
171
     3
172
     1
173
     0
174
     0
175
     0
176
     0
177
     0
178
     0
270
     2
271
     2
272
     2
273
     2
274
     3
340
11
275
     0
280
     0
281
     0
282
     0
283
     0
284
     8
285
     0
286
     0
287
     3
288
     0
  0
ENDTAB
  0
TABLE
  2
BLOCK_RECORD
  5
1
330
0
100
AcDbSymbolTable
 70
     1
  0
BLOCK_RECORD
  5
1F
330
1
100
AcDbSymbolTableRecord
100
AcDbBlockTableRecord
  2
*MODEL_SPACE
  0
BLOCK_RECORD
  5
1B
330
1
100
AcDbSymbolTableRecord
100
AcDbBlockTableRecord
  2
*PAPER_SPACE
  0
BLOCK_RECORD
  5
23
330
1
100
AcDbSymbolTableRecord
100
AcDbBlockTableRecord
  2
*PAPER_SPACE0
  0
ENDTAB
  0
ENDSEC
  0
SECTION
  2
BLOCKS
  0
BLOCK
  5
20
330
1F
100
AcDbEntity
  8
0
100
AcDbBlockBegin
  2
*MODEL_SPACE
 70
     0
 10
0.0
 20
0.0
 30
0.0
  3
*MODEL_SPACE
  1

  0
ENDBLK
  5
21
330
1F
100
AcDbEntity
  8
0
100
AcDbBlockEnd
  0
BLOCK
  5
1C
330
1B
100
AcDbEntity
 67
     1
  8
0
100
AcDbBlockBegin
  2
*PAPER_SPACE
 70
     0
 10
0.0
 20
0.0
 30
0.0
  3
*PAPER_SPACE
  1

  0
ENDBLK
  5
1D
330
1B
100
AcDbEntity
 67
     1
  8
0
100
AcDbBlockEnd
  0
BLOCK
  5
24
330
23
100
AcDbEntity
  8
0
100
AcDbBlockBegin
  2
*PAPER_SPACE0
 70
     0
 10
0.0
 20
0.0
 30
0.0
  3
*PAPER_SPACE0
  1

  0
ENDBLK
  5
25
330
23
100
AcDbEntity
  8
0
100
AcDbBlockEnd
  0
ENDSEC
  0
SECTION
  2
ENTITIES
  0
CIRCLE
  5
63
330
1F
100
AcDbEntity
  8
0
  6
CONTINUOUS
 62
     7
100
AcDbCircle
 10
-12.7842026902
 20
-65.769021291
 30
0.0
 40
1.599999999999984
  0
CIRCLE
  5
183
330
1F
100
AcDbEntity
  8
0
  6
CONTINUOUS
 62
     7
100
AcDbCircle
 10
12.7842026902
 20
65.769021291
 30
0.0
 40
1.599999999999989
  0
CIRCLE
  5
184
330
1F
100
AcDbEntity
  8
0
  6
CONTINUOUS
 62
     7
100
AcDbCircle
 10
52.0687794176
 20
-42.1644662003
 30
0.0
 40
1.881249999999987
  0
CIRCLE
  5
185
330
1F
100
AcDbEntity
  8
0
  6
CONTINUOUS
 62
     7
100
AcDbCircle
 10
-52.0687794176
 20
42.1644662003
 30
0.0
 40
1.881250000000009
  0
LINE
  5
186
330
1F
100
AcDbEntity
  8
0
  6
CONTINUOUS
 62
     7
100
AcDbLine
 10
0.0
 20
81.6938798197
 30
0.0
 11
0.0
 21
72.4931031202
 31
0.0
  0
LINE
  5
187
330
1F
100
AcDbEntity
  8
0
  6
CONTINUOUS
 62
     7
100
AcDbLine
 10
6.3181902465
 20
72.2172449766
 30
0.0
 11
7.1200907736
 21
81.383009943
 31
0.0
  0
LINE
  5
188
330
1F
100
AcDbEntity
  8
0
  6
CONTINUOUS
 62
     7
100
AcDbLine
 10
14.1859933572
 20
80.4527662201
 30
0.0
 11
12.5882952502
 21
71.3917699927
 31
0.0
  0
LINE
  5
189
330
1F
100
AcDbEntity
  8
0
  6
CONTINUOUS
 62
     7
100
AcDbLine
 10
18.7625957261
 20
70.0229605317
 30
0.0
 11
21.1439319657
 21
78.9102283676
 31
0.0
  0
LINE
  5
18A
330
1F
100
AcDbEntity
  8
0
  6
CONTINUOUS
 62
     7
100
AcDbLine
 10
27.9409524848
 20
76.76713603
 30
0.0
 11
24.7941015193
 21
68.12123406
 31
0.0
  0
LINE
  5
18B
330
1F
100
AcDbEntity
  8
0
  6
CONTINUOUS
 62
     7
100
AcDbLine
 10
30.6369092289
 20
65.7010638643
 30
0.0
 11
34.5253254843
 21
74.0397994339
 31
0.0
  0
LINE
  5
18C
330
1F
100
AcDbEntity
  8
0
  6
CONTINUOUS
 62
     7
100
AcDbLine
 10
40.8469399099
 20
70.7489752576
 30
0.0
 11
36.2465515601
 21
62.7808689013
 31
0.0
  0
LINE
  5
18D
330
1F
100
AcDbEntity
  8
0
  6
CONTINUOUS
 62
     7
100
AcDbLine
 10
41.5803357477
 20
59.3828736178
 30
0.0
 11
46.8576844587
 21
66.9197086602
 31
0.0
  0
LINE
  5
18E
330
1F
100
AcDbEntity
  8
0
  6
CONTINUOUS
 62
     7
100
AcDbLine
 10
52.5118137353
 20
62.5811426727
 30
0.0
 11
46.5976684734
 21
55.5329388097
 31
0.0
  0
LINE
  5
18F
330
1F
100
AcDbEntity
  8
0
  6
CONTINUOUS
 62
     7
100
AcDbLine
 10
51.2603648056
 20
51.2603648056
 30
0.0
 11
57.766296402
 21
57.766296402
 31
0.0
  0
LINE
  5
190
330
1F
100
AcDbEntity
  8
0
  6
CONTINUOUS
 62
     7
100
AcDbLine
 10
62.5811426727
 20
52.5118137353
 30
0.0
 11
55.5329388097
 21
46.5976684734
 31
0.0
  0
LINE
  5
191
330
1F
100
AcDbEntity
  8
0
  6
CONTINUOUS
 62
     7
100
AcDbLine
 10
59.3828736178
 20
41.5803357477
 30
0.0
 11
66.9197086602
 21
46.8576844587
 31
0.0
  0
LINE
  5
192
330
1F
100
AcDbEntity
  8
0
  6
CONTINUOUS
 62
     7
100
AcDbLine
 10
70.7489752576
 20
40.8469399099
 30
0.0
 11
62.7808689013
 21
36.2465515601
 31
0.0
  0
LINE
  5
193
330
1F
100
AcDbEntity
  8
0
  6
CONTINUOUS
 62
     7
100
AcDbLine
 10
65.7010638643
 20
30.6369092289
 30
0.0
 11
74.0397994339
 21
34.5253254843
 31
0.0
  0
LINE
  5
194
330
1F
100
AcDbEntity
  8
0
  6
CONTINUOUS
 62
     7
100
AcDbLine
 10
76.76713603
 20
27.9409524848
 30
0.0
 11
68.1212340599
 21
24.7941015193
 31
0.0
  0
LINE
  5
195
330
1F
100
AcDbEntity
  8
0
  6
CONTINUOUS
 62
     7
100
AcDbLine
 10
70.0229605317
 20
18.7625957261
 30
0.0
 11
78.9102283676
 21
21.1439319657
 31
0.0
  0
LINE
  5
196
330
1F
100
AcDbEntity
  8
0
  6
CONTINUOUS
 62
     7
100
AcDbLine
 10
80.4527662201
 20
14.1859933572
 30
0.0
 11
71.3917699927
 21
12.5882952503
 31
0.0
  0
LINE
  5
197
330
1F
100
AcDbEntity
  8
0
  6
CONTINUOUS
 62
     7
100
AcDbLine
 10
72.2172449766
 20
6.3181902465
 30
0.0
 11
81.383009943
 21
7.1200907736
 31
0.0
  0
LINE
  5
198
330
1F
100
AcDbEntity
  8
0
  6
CONTINUOUS
 62
     7
100
AcDbLine
 10
81.6938798197
 20
0.0
 30
0.0
 11
72.4931031202
 21
0.0
 31
0.0
  0
LINE
  5
199
330
1F
100
AcDbEntity
  8
0
  6
CONTINUOUS
 62
     7
100
AcDbLine
 10
72.2172449766
 20
-6.3181902465
 30
0.0
 11
81.383009943
 21
-7.1200907736
 31
0.0
  0
LINE
  5
19A
330
1F
100
AcDbEntity
  8
0
  6
CONTINUOUS
 62
     7
100
AcDbLine
 10
80.4527662201
 20
-14.1859933572
 30
0.0
 11
71.3917699927
 21
-12.5882952502
 31
0.0
  0
LINE
  5
19B
330
1F
100
AcDbEntity
  8
0
  6
CONTINUOUS
 62
     7
100
AcDbLine
 10
70.0229605317
 20
-18.7625957261
 30
0.0
 11
78.9102283676
 21
-21.1439319657
 31
0.0
  0
LINE
  5
19C
330
1F
100
AcDbEntity
  8
0
  6
CONTINUOUS
 62
     7
100
AcDbLine
 10
76.76713603
 20
-27.9409524848
 30
0.0
 11
68.12123406
 21
-24.7941015193
 31
0.0
  0
LINE
  5
19D
330
1F
100
AcDbEntity
  8
0
  6
CONTINUOUS
 62
     7
100
AcDbLine
 10
65.7010638643
 20
-30.6369092289
 30
0.0
 11
74.0397994339
 21
-34.5253254843
 31
0.0
  0
LINE
  5
19E
330
1F
100
AcDbEntity
  8
0
  6
CONTINUOUS
 62
     7
100
AcDbLine
 10
70.7489752576
 20
-40.8469399099
 30
0.0
 11
62.7808689013
 21
-36.2465515601
 31
0.0
  0
LINE
  5
19F
330
1F
100
AcDbEntity
  8
0
  6
CONTINUOUS
 62
     7
100
AcDbLine
 10
59.3828736178
 20
-41.5803357477
 30
0.0
 11
66.9197086602
 21
-46.8576844587
 31
0.0
  0
LINE
  5
1A0
330
1F
100
AcDbEntity
  8
0
  6
CONTINUOUS
 62
     7
100
AcDbLine
 10
62.5811426727
 20
-52.5118137353
 30
0.0
 11
55.5329388097
 21
-46.5976684734
 31
0.0
  0
LINE
  5
1A1
330
1F
100
AcDbEntity
  8
0
  6
CONTINUOUS
 62
     7
100
AcDbLine
 10
51.2603648056
 20
-51.2603648056
 30
0.0
 11
57.766296402
 21
-57.766296402
 31
0.0
  0
LINE
  5
1A2
330
1F
100
AcDbEntity
  8
0
  6
CONTINUOUS
 62
     7
100
AcDbLine
 10
52.5118137353
 20
-62.5811426727
 30
0.0
 11
46.5976684734
 21
-55.5329388097
 31
0.0
  0
LINE
  5
1A3
330
1F
100
AcDbEntity
  8
0
  6
CONTINUOUS
 62
     7
100
AcDbLine
 10
41.5803357477
 20
-59.3828736178
 30
0.0
 11
46.8576844587
 21
-66.9197086602
 31
0.0
  0
LINE
  5
1A4
330
1F
100
AcDbEntity
  8
0
  6
CONTINUOUS
 62
     7
100
AcDbLine
 10
40.8469399099
 20
-70.7489752576
 30
0.0
 11
36.2465515601
 21
-62.7808689013
 31
0.0
  0
LINE
  5
1A5
330
1F
100
AcDbEntity
  8
0
  6
CONTINUOUS
 62
     7
100
AcDbLine
 10
30.6369092289
 20
-65.7010638643
 30
0.0
 11
34.5253254843
 21
-74.0397994339
 31
0.0
  0
LINE
  5
1A6
330
1F
100
AcDbEntity
  8
0
  6
CONTINUOUS
 62
     7
100
AcDbLine
 10
27.9409524848
 20
-76.76713603
 30
0.0
 11
24.7941015193
 21
-68.1212340599
 31
0.0
  0
LINE
  5
1A7
330
1F
100
AcDbEntity
  8
0
  6
CONTINUOUS
 62
     7
100
AcDbLine
 10
18.7625957261
 20
-70.0229605317
 30
0.0
 11
21.1439319657
 21
-78.9102283676
 31
0.0
  0
LINE
  5
1A8
330
1F
100
AcDbEntity
  8
0
  6
CONTINUOUS
 62
     7
100
AcDbLine
 10
14.1859933572
 20
-80.4527662201
 30
0.0
 11
12.5882952503
 21
-71.3917699927
 31
0.0
  0
LINE
  5
1A9
330
1F
100
AcDbEntity
  8
0
  6
CONTINUOUS
 62
     7
100
AcDbLine
 10
6.3181902465
 20
-72.2172449766
 30
0.0
 11
7.1200907736
 21
-81.383009943
 31
0.0
  0
LINE
  5
1AA
330
1F
100
AcDbEntity
  8
0
  6
CONTINUOUS
 62
     7
100
AcDbLine
 10
0.0
 20
-81.6938798197
 30
0.0
 11
0.0
 21
-72.4931031202
 31
0.0
  0
LINE
  5
1AB
330
1F
100
AcDbEntity
  8
0
  6
CONTINUOUS
 62
     7
100
AcDbLine
 10
-6.3181902465
 20
-72.2172449766
 30
0.0
 11
-7.1200907736
 21
-81.383009943
 31
0.0
  0
LINE
  5
1AC
330
1F
100
AcDbEntity
  8
0
  6
CONTINUOUS
 62
     7
100
AcDbLine
 10
-14.1859933572
 20
-80.4527662201
 30
0.0
 11
-12.5882952502
 21
-71.3917699927
 31
0.0
  0
LINE
  5
1AD
330
1F
100
AcDbEntity
  8
0
  6
CONTINUOUS
 62
     7
100
AcDbLine
 10
-18.7625957261
 20
-70.0229605317
 30
0.0
 11
-21.1439319657
 21
-78.9102283676
 31
0.0
  0
LINE
  5
1AE
330
1F
100
AcDbEntity
  8
0
  6
CONTINUOUS
 62
     7
100
AcDbLine
 10
-27.9409524848
 20
-76.76713603
 30
0.0
 11
-24.7941015193
 21
-68.12123406
 31
0.0
  0
LINE
  5
1AF
330
1F
100
AcDbEntity
  8
0
  6
CONTINUOUS
 62
     7
100
AcDbLine
 10
-30.6369092289
 20
-65.7010638643
 30
0.0
 11
-34.5253254843
 21
-74.0397994339
 31
0.0
  0
LINE
  5
1B0
330
1F
100
AcDbEntity
  8
0
  6
CONTINUOUS
 62
     7
100
AcDbLine
 10
-40.8469399099
 20
-70.7489752576
 30
0.0
 11
-36.2465515601
 21
-62.7808689013
 31
0.0
  0
LINE
  5
1B1
330
1F
100
AcDbEntity
  8
0
  6
CONTINUOUS
 62
     7
100
AcDbLine
 10
-41.5803357477
 20
-59.3828736178
 30
0.0
 11
-46.8576844587
 21
-66.9197086602
 31
0.0
  0
LINE
  5
1B2
330
1F
100
AcDbEntity
  8
0
  6
CONTINUOUS
 62
     7
100
AcDbLine
 10
-52.5118137353
 20
-62.5811426727
 30
0.0
 11
-46.5976684734
 21
-55.5329388097
 31
0.0
  0
LINE
  5
1B3
330
1F
100
AcDbEntity
  8
0
  6
CONTINUOUS
 62
     7
100
AcDbLine
 10
-51.2603648056
 20
-51.2603648056
 30
0.0
 11
-57.766296402
 21
-57.766296402
 31
0.0
  0
LINE
  5
1B4
330
1F
100
AcDbEntity
  8
0
  6
CONTINUOUS
 62
     7
100
AcDbLine
 10
-62.5811426727
 20
-52.5118137354
 30
0.0
 11
-55.5329388097
 21
-46.5976684734
 31
0.0
  0
LINE
  5
1B5
330
1F
100
AcDbEntity
  8
0
  6
CONTINUOUS
 62
     7
100
AcDbLine
 10
-59.3828736178
 20
-41.5803357477
 30
0.0
 11
-66.9197086602
 21
-46.8576844587
 31
0.0
  0
LINE
  5
1B6
330
1F
100
AcDbEntity
  8
0
  6
CONTINUOUS
 62
     7
100
AcDbLine
 10
-70.7489752576
 20
-40.8469399099
 30
0.0
 11
-62.7808689013
 21
-36.2465515601
 31
0.0
  0
LINE
  5
1B7
330
1F
100
AcDbEntity
  8
0
  6
CONTINUOUS
 62
     7
100
AcDbLine
 10
-65.7010638643
 20
-30.6369092289
 30
0.0
 11
-74.0397994338
 21
-34.5253254843
 31
0.0
  0
LINE
  5
1B8
330
1F
100
AcDbEntity
  8
0
  6
CONTINUOUS
 62
     7
100
AcDbLine
 10
-76.76713603
 20
-27.9409524848
 30
0.0
 11
-68.1212340599
 21
-24.7941015193
 31
0.0
  0
LINE
  5
1B9
330
1F
100
AcDbEntity
  8
0
  6
CONTINUOUS
 62
     7
100
AcDbLine
 10
-70.0229605317
 20
-18.7625957261
 30
0.0
 11
-78.9102283676
 21
-21.1439319657
 31
0.0
  0
LINE
  5
1BA
330
1F
100
AcDbEntity
  8
0
  6
CONTINUOUS
 62
     7
100
AcDbLine
 10
-80.4527662201
 20
-14.1859933573
 30
0.0
 11
-71.3917699927
 21
-12.5882952503
 31
0.0
  0
LINE
  5
1BB
330
1F
100
AcDbEntity
  8
0
  6
CONTINUOUS
 62
     7
100
AcDbLine
 10
-72.2172449766
 20
-6.3181902465
 30
0.0
 11
-81.383009943
 21
-7.1200907736
 31
0.0
  0
LINE
  5
1BC
330
1F
100
AcDbEntity
  8
0
  6
CONTINUOUS
 62
     7
100
AcDbLine
 10
-81.6938798197
 20
0.0
 30
0.0
 11
-72.4931031202
 21
0.0
 31
0.0
  0
LINE
  5
1BD
330
1F
100
AcDbEntity
  8
0
  6
CONTINUOUS
 62
     7
100
AcDbLine
 10
-72.2172449766
 20
6.3181902465
 30
0.0
 11
-81.383009943
 21
7.1200907736
 31
0.0
  0
LINE
  5
1BE
330
1F
100
AcDbEntity
  8
0
  6
CONTINUOUS
 62
     7
100
AcDbLine
 10
-80.4527662201
 20
14.1859933572
 30
0.0
 11
-71.3917699927
 21
12.5882952502
 31
0.0
  0
LINE
  5
1BF
330
1F
100
AcDbEntity
  8
0
  6
CONTINUOUS
 62
     7
100
AcDbLine
 10
-70.0229605317
 20
18.7625957261
 30
0.0
 11
-78.9102283676
 21
21.1439319656
 31
0.0
  0
LINE
  5
1C0
330
1F
100
AcDbEntity
  8
0
  6
CONTINUOUS
 62
     7
100
AcDbLine
 10
-76.76713603
 20
27.9409524848
 30
0.0
 11
-68.12123406
 21
24.7941015193
 31
0.0
  0
LINE
  5
1C1
330
1F
100
AcDbEntity
  8
0
  6
CONTINUOUS
 62
     7
100
AcDbLine
 10
-65.7010638643
 20
30.6369092288
 30
0.0
 11
-74.0397994339
 21
34.5253254843
 31
0.0
  0
LINE
  5
1C2
330
1F
100
AcDbEntity
  8
0
  6
CONTINUOUS
 62
     7
100
AcDbLine
 10
-70.7489752576
 20
40.8469399098
 30
0.0
 11
-62.7808689013
 21
36.2465515601
 31
0.0
  0
LINE
  5
1C3
330
1F
100
AcDbEntity
  8
0
  6
CONTINUOUS
 62
     7
100
AcDbLine
 10
-59.3828736178
 20
41.5803357477
 30
0.0
 11
-66.9197086602
 21
46.8576844587
 31
0.0
  0
LINE
  5
1C4
330
1F
100
AcDbEntity
  8
0
  6
CONTINUOUS
 62
     7
100
AcDbLine
 10
-62.5811426727
 20
52.5118137353
 30
0.0
 11
-55.5329388097
 21
46.5976684734
 31
0.0
  0
LINE
  5
1C5
330
1F
100
AcDbEntity
  8
0
  6
CONTINUOUS
 62
     7
100
AcDbLine
 10
-51.2603648056
 20
51.2603648056
 30
0.0
 11
-57.766296402
 21
57.766296402
 31
0.0
  0
LINE
  5
1C6
330
1F
100
AcDbEntity
  8
0
  6
CONTINUOUS
 62
     7
100
AcDbLine
 10
-52.5118137354
 20
62.5811426727
 30
0.0
 11
-46.5976684734
 21
55.5329388097
 31
0.0
  0
LINE
  5
1C7
330
1F
100
AcDbEntity
  8
0
  6
CONTINUOUS
 62
     7
100
AcDbLine
 10
-41.5803357477
 20
59.3828736178
 30
0.0
 11
-46.8576844587
 21
66.9197086602
 31
0.0
  0
LINE
  5
1C8
330
1F
100
AcDbEntity
  8
0
  6
CONTINUOUS
 62
     7
100
AcDbLine
 10
-40.8469399099
 20
70.7489752576
 30
0.0
 11
-36.2465515601
 21
62.7808689013
 31
0.0
  0
LINE
  5
1C9
330
1F
100
AcDbEntity
  8
0
  6
CONTINUOUS
 62
     7
100
AcDbLine
 10
-30.6369092289
 20
65.7010638643
 30
0.0
 11
-34.5253254843
 21
74.0397994338
 31
0.0
  0
LINE
  5
1CA
330
1F
100
AcDbEntity
  8
0
  6
CONTINUOUS
 62
     7
100
AcDbLine
 10
-27.9409524848
 20
76.76713603
 30
0.0
 11
-24.7941015193
 21
68.1212340599
 31
0.0
  0
LINE
  5
1CB
330
1F
100
AcDbEntity
  8
0
  6
CONTINUOUS
 62
     7
100
AcDbLine
 10
-18.7625957261
 20
70.0229605317
 30
0.0
 11
-21.1439319657
 21
78.9102283676
 31
0.0
  0
LINE
  5
1CC
330
1F
100
AcDbEntity
  8
0
  6
CONTINUOUS
 62
     7
100
AcDbLine
 10
-0.9862068966
 20
71.4931982496
 30
0.0
 11
-0.9863602659
 21
71.4931961338
 31
0.0
  0
ARC
  5
1CD
330
1F
100
AcDbEntity
  8
0
  6
CONTINUOUS
 62
     7
100
AcDbCircle
 10
-30.8443572403
 20
50.8809947469
 30
0.0
 40
3.000000000000042
100
AcDbArc
 50
70.9161227602
 51
121.2244891493
  0
ARC
  5
1CE
330
1F
100
AcDbEntity
  8
0
  6
CONTINUOUS
 62
     7
100
AcDbCircle
 10
0.0
 20
0.0
 30
0.0
 40
62.49999999999989
100
AcDbArc
 50
121.2244891493
 51
73.7755108507
  0
ARC
  5
1CF
330
1F
100
AcDbEntity
  8
0
  6
CONTINUOUS
 62
     7
100
AcDbCircle
 10
16.6243907794
 20
57.130373981
 30
0.0
 40
3.00000000000013
100
AcDbArc
 50
73.7755108507
 51
124.0838772398
  0
ARC
  5
1D0
330
1F
100
AcDbEntity
  8
0
  6
CONTINUOUS
 62
     7
100
AcDbCircle
 10
13.2619550187
 20
62.099682359
 30
0.0
 40
2.999999999999957
100
AcDbArc
 50
257.9450506104
 51
304.0838772398
  0
ARC
  5
1D1
330
1F
100
AcDbEntity
  8
0
  6
CONTINUOUS
 62
     7
100
AcDbCircle
 10
0.3099407122
 20
-2.3542334394
 30
0.0
 40
62.74262043170444
100
AcDbArc
 50
78.6708593707
 51
116.3291406293
  0
ARC
  5
1D2
330
1F
100
AcDbEntity
  8
0
  6
CONTINUOUS
 62
     7
100
AcDbCircle
 10
-28.8826453489
 20
56.5512404607
 30
0.0
 40
3.000000000000032
100
AcDbArc
 50
250.9161227602
 51
297.0549493896
  0
ARC
  5
1D3
330
1F
100
AcDbEntity
  8
0
  6
CONTINUOUS
 62
     7
100
AcDbCircle
 10
1.0
 20
81.6938798197
 30
0.0
 40
1.000000000000022
100
AcDbArc
 50
89.2986877572
 51
180.0
  0
ARC
  5
1D4
330
1F
100
AcDbEntity
  8
0
  6
CONTINUOUS
 62
     7
100
AcDbCircle
 10
0.0
 20
0.0000000001
 30
0.0
 40
82.69999999995
100
AcDbArc
 50
85.7013122428
 51
89.2986877572
  0
ARC
  5
1D5
330
1F
100
AcDbEntity
  8
0
  6
CONTINUOUS
 62
     7
100
AcDbCircle
 10
6.1238960755
 20
81.4701656857
 30
0.0
 40
1.000000000000042
100
AcDbArc
 50
355.0
 51
85.7013122428
  0
ARC
  5
1D6
330
1F
100
AcDbEntity
  8
0
  6
CONTINUOUS
 62
     7
100
AcDbCircle
 10
7.3143849446
 20
72.1300892338
 30
0.0
 40
1.000000000000104
100
AcDbArc
 50
175.0
 51
264.2096883252
  0
ARC
  5
1D7
330
1F
100
AcDbEntity
  8
0
  6
CONTINUOUS
 62
     7
100
AcDbCircle
 10
0.0
 20
0.0000000002
 30
0.0
 40
71.49999999984286
100
AcDbArc
 50
80.7903116747
 51
84.2096883253
  0
ARC
  5
1D8
330
1F
100
AcDbEntity
  8
0
  6
CONTINUOUS
 62
     7
100
AcDbCircle
 10
11.6034874972
 20
71.5654181704
 30
0.0
 40
1.000000000000227
100
AcDbArc
 50
260.7903116748
 51
350.0
  0
ARC
  5
1D9
330
1F
100
AcDbEntity
  8
0
  6
CONTINUOUS
 62
     7
100
AcDbCircle
 10
15.1708011102
 20
80.2791180424
 30
0.0
 40
1.000000000000028
100
AcDbArc
 50
79.2986877572
 51
170.0
  0
ARC
  5
1DA
330
1F
100
AcDbEntity
  8
0
  6
CONTINUOUS
 62
     7
100
AcDbCircle
 10
0.0
 20
0.0
 30
0.0
 40
82.69999999997604
100
AcDbArc
 50
75.7013122428
 51
79.2986877572
  0
ARC
  5
1DB
330
1F
100
AcDbEntity
  8
0
  6
CONTINUOUS
 62
     7
100
AcDbCircle
 10
20.1780061394
 20
79.1690474127
 30
0.0
 40
1.000000000000002
100
AcDbArc
 50
345.0
 51
75.7013122428
  0
ARC
  5
1DC
330
1F
100
AcDbEntity
  8
0
  6
CONTINUOUS
 62
     7
100
AcDbCircle
 10
19.7285215524
 20
69.7641414866
 30
0.0
 40
0.9999999999999983
100
AcDbArc
 50
165.0
 51
254.2096883252
  0
ARC
  5
1DD
330
1F
100
AcDbEntity
  8
0
  6
CONTINUOUS
 62
     7
100
AcDbCircle
 10
0.0
 20
0.0000000002
 30
0.0
 40
71.49999999983984
100
AcDbArc
 50
70.7903116747
 51
74.2096883253
  0
ARC
  5
1DE
330
1F
100
AcDbEntity
  8
0
  6
CONTINUOUS
 62
     7
100
AcDbCircle
 10
23.8544088985
 20
68.4632542033
 30
0.0
 40
1.000000000000218
100
AcDbArc
 50
250.7903116748
 51
340.0
  0
ARC
  5
1DF
330
1F
100
AcDbEntity
  8
0
  6
CONTINUOUS
 62
     7
100
AcDbCircle
 10
28.8806451056
 20
76.4251158866
 30
0.0
 40
1.000000000000011
100
AcDbArc
 50
69.2986877572
 51
160.0
  0
ARC
  5
1E0
330
1F
100
AcDbEntity
  8
0
  6
CONTINUOUS
 62
     7
100
AcDbCircle
 10
0.0
 20
0.0
 30
0.0
 40
82.69999999997907
100
AcDbArc
 50
65.7013122428
 51
69.2986877572
  0
ARC
  5
1E1
330
1F
100
AcDbEntity
  8
0
  6
CONTINUOUS
 62
     7
100
AcDbCircle
 10
33.6190176972
 20
74.4624176956
 30
0.0
 40
1.00000000000004
100
AcDbArc
 50
335.0
 51
65.7013122428
  0
ARC
  5
1E2
330
1F
100
AcDbEntity
  8
0
  6
CONTINUOUS
 62
     7
100
AcDbCircle
 10
31.5432170159
 20
65.2784456026
 30
0.0
 40
1.000000000000016
100
AcDbArc
 50
155.0
 51
244.2096883253
  0
ARC
  5
1E3
330
1F
100
AcDbEntity
  8
0
  6
CONTINUOUS
 62
     7
100
AcDbCircle
 10
0.0000000001
 20
0.0000000001
 30
0.0
 40
71.49999999984301
100
AcDbArc
 50
60.7903116748
 51
64.2096883253
  0
ARC
  5
1E4
330
1F
100
AcDbEntity
  8
0
  6
CONTINUOUS
 62
     7
100
AcDbCircle
 10
35.3805261563
 20
63.2808689013
 30
0.0
 40
1.000000000000245
100
AcDbArc
 50
240.7903116748
 51
330.0
  0
ARC
  5
1E5
330
1F
100
AcDbEntity
  8
0
  6
CONTINUOUS
 62
     7
100
AcDbCircle
 10
41.7129653136
 20
70.2489752576
 30
0.0
 40
1.000000000000002
100
AcDbArc
 50
59.2986877572
 51
150.0
  0
ARC
  5
1E6
330
1F
100
AcDbEntity
  8
0
  6
CONTINUOUS
 62
     7
100
AcDbCircle
 10
0.0
 20
0.0
 30
0.0
 40
82.69999999999922
100
AcDbArc
 50
55.7013122428
 51
59.2986877572
  0
ARC
  5
1E7
330
1F
100
AcDbEntity
  8
0
  6
CONTINUOUS
 62
     7
100
AcDbCircle
 10
46.0385324144
 20
67.4932850966
 30
0.0
 40
1.000000000000022
100
AcDbArc
 50
325.0
 51
55.7013122428
  0
ARC
  5
1E8
330
1F
100
AcDbEntity
  8
0
  6
CONTINUOUS
 62
     7
100
AcDbCircle
 10
42.399487792
 20
58.8092971814
 30
0.0
 40
1.000000000000024
100
AcDbArc
 50
145.0
 51
234.2096883252
  0
ARC
  5
1E9
330
1F
100
AcDbEntity
  8
0
  6
CONTINUOUS
 62
     7
100
AcDbCircle
 10
0.0000000001
 20
0.0000000001
 30
0.0
 40
71.49999999982374
100
AcDbArc
 50
50.7903116748
 51
54.2096883253
  0
ARC
  5
1EA
330
1F
100
AcDbEntity
  8
0
  6
CONTINUOUS
 62
     7
100
AcDbCircle
 10
45.8316240303
 20
56.1757264194
 30
0.0
 40
1.000000000000224
100
AcDbArc
 50
230.7903116748
 51
320.0
  0
ARC
  5
1EB
330
1F
100
AcDbEntity
  8
0
  6
CONTINUOUS
 62
     7
100
AcDbCircle
 10
53.2778581785
 20
61.938355063
 30
0.0
 40
1.000000000000014
100
AcDbArc
 50
49.2986877572
 51
140.0
  0
ARC
  5
1EC
330
1F
100
AcDbEntity
  8
0
  6
CONTINUOUS
 62
     7
100
AcDbCircle
 10
0.0
 20
0.0
 30
0.0
 40
82.69999999995814
100
AcDbArc
 50
45.7013122428
 51
49.2986877572
  0
ARC
  5
1ED
330
1F
100
AcDbEntity
  8
0
  6
CONTINUOUS
 62
     7
100
AcDbCircle
 10
57.0591896208
 20
58.4734031832
 30
0.0
 40
1.000000000000001
100
AcDbArc
 50
315.0
 51
45.7013122428
  0
ARC
  5
1EE
330
1F
100
AcDbEntity
  8
0
  6
CONTINUOUS
 62
     7
100
AcDbCircle
 10
51.9674715868
 20
50.5532580244
 30
0.0
 40
1.000000000000008
100
AcDbArc
 50
135.0
 51
224.2096883253
  0
ARC
  5
1EF
330
1F
100
AcDbEntity
  8
0
  6
CONTINUOUS
 62
     7
100
AcDbCircle
 10
0.0000000001
 20
0.0000000001
 30
0.0
 40
71.49999999983271
100
AcDbArc
 50
40.7903116748
 51
44.2096883253
  0
ARC
  5
1F0
330
1F
100
AcDbEntity
  8
0
  6
CONTINUOUS
 62
     7
100
AcDbCircle
 10
54.8901512
 20
47.3637129165
 30
0.0
 40
1.00000000000022
100
AcDbArc
 50
220.7903116748
 51
310.0
  0
ARC
  5
1F1
330
1F
100
AcDbEntity
  8
0
  6
CONTINUOUS
 62
     7
100
AcDbCircle
 10
63.2239302824
 20
51.7457692922
 30
0.0
 40
0.9999999999999887
100
AcDbArc
 50
39.2986877572
 51
130.0
  0
ARC
  5
1F2
330
1F
100
AcDbEntity
  8
0
  6
CONTINUOUS
 62
     7
100
AcDbCircle
 10
0.0
 20
0.0
 30
0.0
 40
82.69999999997704
100
AcDbArc
 50
35.7013122428
 51
39.2986877572
  0
ARC
  5
1F3
330
1F
100
AcDbEntity
  8
0
  6
CONTINUOUS
 62
     7
100
AcDbCircle
 10
66.3461322239
 20
47.676836503
 30
0.0
 40
0.9999999999999902
100
AcDbArc
 50
305.0
 51
35.7013122428
  0
ARC
  5
1F4
330
1F
100
AcDbEntity
  8
0
  6
CONTINUOUS
 62
     7
100
AcDbCircle
 10
59.9564500541
 20
40.7611837034
 30
0.0
 40
1.000000000000032
100
AcDbArc
 50
125.0
 51
214.2096883253
  0
ARC
  5
1F5
330
1F
100
AcDbEntity
  8
0
  6
CONTINUOUS
 62
     7
100
AcDbCircle
 10
0.0000000001
 20
0.0000000001
 30
0.0
 40
71.49999999983349
100
AcDbArc
 50
30.7903116748
 51
34.2096883253
  0
ARC
  5
1F6
330
1F
100
AcDbEntity
  8
0
  6
CONTINUOUS
 62
     7
100
AcDbCircle
 10
62.2808689013
 20
37.1125769639
 30
0.0
 40
1.000000000000229
100
AcDbArc
 50
210.7903116748
 51
300.0
  0
ARC
  5
1F7
330
1F
100
AcDbEntity
  8
0
  6
CONTINUOUS
 62
     7
100
AcDbCircle
 10
71.2489752576
 20
39.9809145061
 30
0.0
 40
1.000000000000002
100
AcDbArc
 50
29.2986877572
 51
120.0
  0
ARC
  5
1F8
330
1F
100
AcDbEntity
  8
0
  6
CONTINUOUS
 62
     7
100
AcDbCircle
 10
0.0
 20
0.0
 30
0.0
 40
82.70000000001345
100
AcDbArc
 50
25.7013122428
 51
29.2986877572
  0
ARC
  5
1F9
330
1F
100
AcDbEntity
  8
0
  6
CONTINUOUS
 62
     7
100
AcDbCircle
 10
73.6171811721
 20
35.4316332713
 30
0.0
 40
1.000000000000012
100
AcDbArc
 50
295.0
 51
25.7013122428
  0
ARC
  5
1FA
330
1F
100
AcDbEntity
  8
0
  6
CONTINUOUS
 62
     7
100
AcDbCircle
 10
66.1236821261
 20
29.7306014418
 30
0.0
 40
0.9999999999999732
100
AcDbArc
 50
115.0
 51
204.2096883253
  0
ARC
  5
1FB
330
1F
100
AcDbEntity
  8
0
  6
CONTINUOUS
 62
     7
100
AcDbCircle
 10
0.0000000002
 20
0.0000000001
 30
0.0
 40
71.49999999983233
100
AcDbArc
 50
20.7903116748
 51
24.2096883253
  0
ARC
  5
1FC
330
1F
100
AcDbEntity
  8
0
  6
CONTINUOUS
 62
     7
100
AcDbCircle
 10
67.7792139166
 20
25.7337941401
 30
0.0
 40
1.000000000000221
100
AcDbArc
 50
200.7903116748
 51
290.0
  0
ARC
  5
1FD
330
1F
100
AcDbEntity
  8
0
  6
CONTINUOUS
 62
     7
100
AcDbCircle
 10
77.1091561733
 20
27.001259864
 30
0.0
 40
0.9999999999999982
100
AcDbArc
 50
19.2986877572
 51
110.0
  0
ARC
  5
1FE
330
1F
100
AcDbEntity
  8
0
  6
CONTINUOUS
 62
     7
100
AcDbCircle
 10
0.0
 20
0.0
 30
0.0
 40
82.69999999996139
100
AcDbArc
 50
15.7013122428
 51
19.2986877572
  0
ARC
  5
1FF
330
1F
100
AcDbEntity
  8
0
  6
CONTINUOUS
 62
     7
100
AcDbCircle
 10
78.6514093225
 20
22.109857792
 30
0.0
 40
0.9999999999999937
100
AcDbArc
 50
285.0
 51
15.7013122428
  0
ARC
  5
200
330
1F
100
AcDbEntity
  8
0
  6
CONTINUOUS
 62
     7
100
AcDbCircle
 10
70.2817795768
 20
17.7966698998
 30
0.0
 40
1.000000000000001
100
AcDbArc
 50
105.0
 51
194.2096883253
  0
ARC
  5
201
330
1F
100
AcDbEntity
  8
0
  6
CONTINUOUS
 62
     7
100
AcDbCircle
 10
0.0000000002
 20
0.0
 30
0.0
 40
71.4999999998446
100
AcDbArc
 50
10.7903116748
 51
14.2096883253
  0
ARC
  5
202
330
1F
100
AcDbEntity
  8
0
  6
CONTINUOUS
 62
     7
100
AcDbCircle
 10
71.218121815
 20
13.5731030033
 30
0.0
 40
1.000000000000232
100
AcDbArc
 50
190.7903116748
 51
280.0
  0
ARC
  5
203
330
1F
100
AcDbEntity
  8
0
  6
CONTINUOUS
 62
     7
100
AcDbCircle
 10
80.6264143978
 20
13.2011856042
 30
0.0
 40
0.9999999999999876
100
AcDbArc
 50
9.2986877572
 51
100.0
  0
ARC
  5
204
330
1F
100
AcDbEntity
  8
0
  6
CONTINUOUS
 62
     7
100
AcDbCircle
 10
0.0
 20
0.0
 30
0.0
 40
82.69999999997428
100
AcDbArc
 50
5.7013122428
 51
9.2986877572
  0
ARC
  5
205
330
1F
100
AcDbEntity
  8
0
  6
CONTINUOUS
 62
     7
100
AcDbCircle
 10
81.2958542002
 20
8.1162854717
 30
0.0
 40
0.9999999999999928
100
AcDbArc
 50
275.0
 51
5.7013122428
  0
ARC
  5
206
330
1F
100
AcDbEntity
  8
0
  6
CONTINUOUS
 62
     7
100
AcDbCircle
 10
72.3044007193
 20
5.3219955484
 30
0.0
 40
1.000000000000016
100
AcDbArc
 50
95.0
 51
184.2096883253
  0
ARC
  5
207
330
1F
100
AcDbEntity
  8
0
  6
CONTINUOUS
 62
     7
100
AcDbCircle
 10
0.0000000002
 20
0.0
 30
0.0
 40
71.49999999982452
100
AcDbArc
 50
0.7903116748
 51
4.2096883253
  0
ARC
  5
208
330
1F
100
AcDbEntity
  8
0
  6
CONTINUOUS
 62
     7
100
AcDbCircle
 10
72.4931031202
 20
1.0
 30
0.0
 40
1.000000000000217
100
AcDbArc
 50
180.7903116748
 51
270.0
  0
ARC
  5
209
330
1F
100
AcDbEntity
  8
0
  6
CONTINUOUS
 62
     7
100
AcDbCircle
 10
81.6938798197
 20
-1.0
 30
0.0
 40
1.000000000000011
100
AcDbArc
 50
359.2986877572
 51
90.0
  0
ARC
  5
20A
330
1F
100
AcDbEntity
  8
0
  6
CONTINUOUS
 62
     7
100
AcDbCircle
 10
0.0
 20
0.0
 30
0.0
 40
82.69999999997826
100
AcDbArc
 50
355.7013122428
 51
359.2986877572
  0
ARC
  5
20B
330
1F
100
AcDbEntity
  8
0
  6
CONTINUOUS
 62
     7
100
AcDbCircle
 10
81.4701656857
 20
-6.1238960755
 30
0.0
 40
0.9999999999999779
100
AcDbArc
 50
265.0
 51
355.7013122428
  0
ARC
  5
20C
330
1F
100
AcDbEntity
  8
0
  6
CONTINUOUS
 62
     7
100
AcDbCircle
 10
72.1300892338
 20
-7.3143849446
 30
0.0
 40
0.9999999999999917
100
AcDbArc
 50
85.0
 51
174.2096883253
  0
ARC
  5
20D
330
1F
100
AcDbEntity
  8
0
  6
CONTINUOUS
 62
     7
100
AcDbCircle
 10
0.0000000002
 20
0.0
 30
0.0
 40
71.49999999984145
100
AcDbArc
 50
350.7903116748
 51
354.2096883253
  0
ARC
  5
20E
330
1F
100
AcDbEntity
  8
0
  6
CONTINUOUS
 62
     7
100
AcDbCircle
 10
71.5654181704
 20
-11.6034874972
 30
0.0
 40
1.000000000000256
100
AcDbArc
 50
170.7903116748
 51
260.0
  0
ARC
  5
20F
330
1F
100
AcDbEntity
  8
0
  6
CONTINUOUS
 62
     7
100
AcDbCircle
 10
80.2791180424
 20
-15.1708011102
 30
0.0
 40
0.9999999999999992
100
AcDbArc
 50
349.2986877572
 51
80.0
  0
ARC
  5
210
330
1F
100
AcDbEntity
  8
0
  6
CONTINUOUS
 62
     7
100
AcDbCircle
 10
0.0
 20
0.0
 30
0.0
 40
82.69999999998478
100
AcDbArc
 50
345.7013122428
 51
349.2986877572
  0
ARC
  5
211
330
1F
100
AcDbEntity
  8
0
  6
CONTINUOUS
 62
     7
100
AcDbCircle
 10
79.1690474127
 20
-20.1780061394
 30
0.0
 40
0.9999999999999908
100
AcDbArc
 50
255.0
 51
345.7013122428
  0
ARC
  5
212
330
1F
100
AcDbEntity
  8
0
  6
CONTINUOUS
 62
     7
100
AcDbCircle
 10
69.7641414866
 20
-19.7285215524
 30
0.0
 40
1.000000000000004
100
AcDbArc
 50
75.0
 51
164.2096883253
  0
ARC
  5
213
330
1F
100
AcDbEntity
  8
0
  6
CONTINUOUS
 62
     7
100
AcDbCircle
 10
0.0000000002
 20
-0.0000000001
 30
0.0
 40
71.49999999983442
100
AcDbArc
 50
340.7903116748
 51
344.2096883253
  0
ARC
  5
214
330
1F
100
AcDbEntity
  8
0
  6
CONTINUOUS
 62
     7
100
AcDbCircle
 10
68.4632542033
 20
-23.8544088985
 30
0.0
 40
1.000000000000234
100
AcDbArc
 50
160.7903116748
 51
250.0
  0
ARC
  5
215
330
1F
100
AcDbEntity
  8
0
  6
CONTINUOUS
 62
     7
100
AcDbCircle
 10
76.4251158866
 20
-28.8806451056
 30
0.0
 40
0.9999999999999997
100
AcDbArc
 50
339.2986877572
 51
70.0
  0
ARC
  5
216
330
1F
100
AcDbEntity
  8
0
  6
CONTINUOUS
 62
     7
100
AcDbCircle
 10
0.0000000001
 20
0.0
 30
0.0
 40
82.69999999993836
100
AcDbArc
 50
335.7013122428
 51
339.2986877572
  0
ARC
  5
217
330
1F
100
AcDbEntity
  8
0
  6
CONTINUOUS
 62
     7
100
AcDbCircle
 10
74.4624176956
 20
-33.6190176972
 30
0.0
 40
1.000000000000023
100
AcDbArc
 50
245.0
 51
335.7013122428
  0
ARC
  5
218
330
1F
100
AcDbEntity
  8
0
  6
CONTINUOUS
 62
     7
100
AcDbCircle
 10
65.2784456026
 20
-31.5432170159
 30
0.0
 40
1.000000000000026
100
AcDbArc
 50
65.0
 51
154.2096883253
  0
ARC
  5
219
330
1F
100
AcDbEntity
  8
0
  6
CONTINUOUS
 62
     7
100
AcDbCircle
 10
0.0000000002
 20
-0.0000000001
 30
0.0
 40
71.49999999982464
100
AcDbArc
 50
330.7903116748
 51
334.2096883253
  0
ARC
  5
21A
330
1F
100
AcDbEntity
  8
0
  6
CONTINUOUS
 62
     7
100
AcDbCircle
 10
63.2808689013
 20
-35.3805261563
 30
0.0
 40
1.000000000000218
100
AcDbArc
 50
150.7903116748
 51
240.0
  0
ARC
  5
21B
330
1F
100
AcDbEntity
  8
0
  6
CONTINUOUS
 62
     7
100
AcDbCircle
 10
70.2489752576
 20
-41.7129653136
 30
0.0
 40
1.000000000000032
100
AcDbArc
 50
329.2986877572
 51
60.0
  0
ARC
  5
21C
330
1F
100
AcDbEntity
  8
0
  6
CONTINUOUS
 62
     7
100
AcDbCircle
 10
0.0
 20
0.0
 30
0.0
 40
82.69999999997191
100
AcDbArc
 50
325.7013122428
 51
329.2986877572
  0
ARC
  5
21D
330
1F
100
AcDbEntity
  8
0
  6
CONTINUOUS
 62
     7
100
AcDbCircle
 10
67.4932850966
 20
-46.0385324144
 30
0.0
 40
1.000000000000014
100
AcDbArc
 50
235.0
 51
325.7013122428
  0
ARC
  5
21E
330
1F
100
AcDbEntity
  8
0
  6
CONTINUOUS
 62
     7
100
AcDbCircle
 10
58.8092971814
 20
-42.399487792
 30
0.0
 40
1.000000000000034
100
AcDbArc
 50
55.0
 51
144.2096883253
  0
ARC
  5
21F
330
1F
100
AcDbEntity
  8
0
  6
CONTINUOUS
 62
     7
100
AcDbCircle
 10
0.0000000001
 20
-0.0000000001
 30
0.0
 40
71.49999999984264
100
AcDbArc
 50
320.7903116748
 51
324.2096883253
  0
ARC
  5
220
330
1F
100
AcDbEntity
  8
0
  6
CONTINUOUS
 62
     7
100
AcDbCircle
 10
56.1757264194
 20
-45.8316240303
 30
0.0
 40
1.000000000000231
100
AcDbArc
 50
140.7903116748
 51
230.0
  0
ARC
  5
221
330
1F
100
AcDbEntity
  8
0
  6
CONTINUOUS
 62
     7
100
AcDbCircle
 10
61.9383550631
 20
-53.2778581785
 30
0.0
 40
1.000000000000009
100
AcDbArc
 50
319.2986877572
 51
50.0
  0
ARC
  5
222
330
1F
100
AcDbEntity
  8
0
  6
CONTINUOUS
 62
     7
100
AcDbCircle
 10
0.0
 20
0.0
 30
0.0
 40
82.69999999997287
100
AcDbArc
 50
315.7013122428
 51
319.2986877572
  0
ARC
  5
223
330
1F
100
AcDbEntity
  8
0
  6
CONTINUOUS
 62
     7
100
AcDbCircle
 10
58.4734031832
 20
-57.0591896208
 30
0.0
 40
0.999999999999988
100
AcDbArc
 50
225.0
 51
315.7013122428
  0
ARC
  5
224
330
1F
100
AcDbEntity
  8
0
  6
CONTINUOUS
 62
     7
100
AcDbCircle
 10
50.5532580244
 20
-51.9674715867
 30
0.0
 40
1.000000000000018
100
AcDbArc
 50
45.0
 51
134.2096883253
  0
ARC
  5
225
330
1F
100
AcDbEntity
  8
0
  6
CONTINUOUS
 62
     7
100
AcDbCircle
 10
0.0000000001
 20
-0.0000000001
 30
0.0
 40
71.49999999985035
100
AcDbArc
 50
310.7903116748
 51
314.2096883253
  0
ARC
  5
226
330
1F
100
AcDbEntity
  8
0
  6
CONTINUOUS
 62
     7
100
AcDbCircle
 10
47.3637129165
 20
-54.8901512
 30
0.0
 40
1.000000000000239
100
AcDbArc
 50
130.7903116748
 51
220.0
  0
ARC
  5
227
330
1F
100
AcDbEntity
  8
0
  6
CONTINUOUS
 62
     7
100
AcDbCircle
 10
51.7457692922
 20
-63.2239302824
 30
0.0
 40
1.000000000000009
100
AcDbArc
 50
309.2986877572
 51
40.0
  0
ARC
  5
228
330
1F
100
AcDbEntity
  8
0
  6
CONTINUOUS
 62
     7
100
AcDbCircle
 10
0.0
 20
0.0
 30
0.0
 40
82.69999999998053
100
AcDbArc
 50
305.7013122428
 51
309.2986877572
  0
ARC
  5
229
330
1F
100
AcDbEntity
  8
0
  6
CONTINUOUS
 62
     7
100
AcDbCircle
 10
47.676836503
 20
-66.3461322239
 30
0.0
 40
0.9999999999999766
100
AcDbArc
 50
215.0
 51
305.7013122428
  0
ARC
  5
22A
330
1F
100
AcDbEntity
  8
0
  6
CONTINUOUS
 62
     7
100
AcDbCircle
 10
40.7611837034
 20
-59.9564500541
 30
0.0
 40
0.9999999999999993
100
AcDbArc
 50
35.0
 51
124.2096883253
  0
ARC
  5
22B
330
1F
100
AcDbEntity
  8
0
  6
CONTINUOUS
 62
     7
100
AcDbCircle
 10
0.0000000001
 20
-0.0000000001
 30
0.0
 40
71.49999999983814
100
AcDbArc
 50
300.7903116748
 51
304.2096883253
  0
ARC
  5
22C
330
1F
100
AcDbEntity
  8
0
  6
CONTINUOUS
 62
     7
100
AcDbCircle
 10
37.1125769639
 20
-62.2808689013
 30
0.0
 40
1.00000000000022
100
AcDbArc
 50
120.7903116748
 51
210.0
  0
ARC
  5
22D
330
1F
100
AcDbEntity
  8
0
  6
CONTINUOUS
 62
     7
100
AcDbCircle
 10
39.9809145061
 20
-71.2489752576
 30
0.0
 40
1.00000000000001
100
AcDbArc
 50
299.2986877572
 51
30.0
  0
ARC
  5
22E
330
1F
100
AcDbEntity
  8
0
  6
CONTINUOUS
 62
     7
100
AcDbCircle
 10
0.0
 20
0.0
 30
0.0
 40
82.6999999999577
100
AcDbArc
 50
295.7013122428
 51
299.2986877572
  0
ARC
  5
22F
330
1F
100
AcDbEntity
  8
0
  6
CONTINUOUS
 62
     7
100
AcDbCircle
 10
35.4316332713
 20
-73.6171811721
 30
0.0
 40
1.00000000000004
100
AcDbArc
 50
205.0
 51
295.7013122428
  0
ARC
  5
230
330
1F
100
AcDbEntity
  8
0
  6
CONTINUOUS
 62
     7
100
AcDbCircle
 10
29.7306014418
 20
-66.1236821261
 30
0.0
 40
0.9999999999999895
100
AcDbArc
 50
25.0
 51
114.2096883253
  0
ARC
  5
231
330
1F
100
AcDbEntity
  8
0
  6
CONTINUOUS
 62
     7
100
AcDbCircle
 10
0.0000000001
 20
-0.0000000001
 30
0.0
 40
71.49999999986062
100
AcDbArc
 50
290.7903116748
 51
294.2096883253
  0
ARC
  5
232
330
1F
100
AcDbEntity
  8
0
  6
CONTINUOUS
 62
     7
100
AcDbCircle
 10
25.7337941401
 20
-67.7792139166
 30
0.0
 40
1.000000000000266
100
AcDbArc
 50
110.7903116748
 51
200.0
  0
ARC
  5
233
330
1F
100
AcDbEntity
  8
0
  6
CONTINUOUS
 62
     7
100
AcDbCircle
 10
27.001259864
 20
-77.1091561733
 30
0.0
 40
1.00000000000001
100
AcDbArc
 50
289.2986877572
 51
20.0
  0
ARC
  5
234
330
1F
100
AcDbEntity
  8
0
  6
CONTINUOUS
 62
     7
100
AcDbCircle
 10
0.0
 20
0.0
 30
0.0
 40
82.69999999998389
100
AcDbArc
 50
285.7013122428
 51
289.2986877572
  0
ARC
  5
235
330
1F
100
AcDbEntity
  8
0
  6
CONTINUOUS
 62
     7
100
AcDbCircle
 10
22.109857792
 20
-78.6514093225
 30
0.0
 40
0.999999999999991
100
AcDbArc
 50
195.0
 51
285.7013122428
  0
ARC
  5
236
330
1F
100
AcDbEntity
  8
0
  6
CONTINUOUS
 62
     7
100
AcDbCircle
 10
17.7966698998
 20
-70.2817795768
 30
0.0
 40
1.000000000000037
100
AcDbArc
 50
15.0
 51
104.2096883253
  0
ARC
  5
237
330
1F
100
AcDbEntity
  8
0
  6
CONTINUOUS
 62
     7
100
AcDbCircle
 10
0.0
 20
-0.0000000002
 30
0.0
 40
71.49999999983699
100
AcDbArc
 50
280.7903116748
 51
284.2096883253
  0
ARC
  5
238
330
1F
100
AcDbEntity
  8
0
  6
CONTINUOUS
 62
     7
100
AcDbCircle
 10
13.5731030033
 20
-71.218121815
 30
0.0
 40
1.000000000000234
100
AcDbArc
 50
100.7903116748
 51
190.0
  0
ARC
  5
239
330
1F
100
AcDbEntity
  8
0
  6
CONTINUOUS
 62
     7
100
AcDbCircle
 10
13.2011856042
 20
-80.6264143978
 30
0.0
 40
1.000000000000006
100
AcDbArc
 50
279.2986877572
 51
10.0
  0
ARC
  5
23A
330
1F
100
AcDbEntity
  8
0
  6
CONTINUOUS
 62
     7
100
AcDbCircle
 10
0.0
 20
0.0
 30
0.0
 40
82.69999999995899
100
AcDbArc
 50
275.7013122428
 51
279.2986877572
  0
ARC
  5
23B
330
1F
100
AcDbEntity
  8
0
  6
CONTINUOUS
 62
     7
100
AcDbCircle
 10
8.1162854717
 20
-81.2958542002
 30
0.0
 40
1.00000000000001
100
AcDbArc
 50
185.0
 51
275.7013122428
  0
ARC
  5
23C
330
1F
100
AcDbEntity
  8
0
  6
CONTINUOUS
 62
     7
100
AcDbCircle
 10
5.3219955484
 20
-72.3044007193
 30
0.0
 40
0.9999999999999909
100
AcDbArc
 50
5.0
 51
94.2096883253
  0
ARC
  5
23D
330
1F
100
AcDbEntity
  8
0
  6
CONTINUOUS
 62
     7
100
AcDbCircle
 10
0.0
 20
-0.0000000002
 30
0.0
 40
71.49999999980899
100
AcDbArc
 50
270.7903116748
 51
274.2096883253
  0
ARC
  5
23E
330
1F
100
AcDbEntity
  8
0
  6
CONTINUOUS
 62
     7
100
AcDbCircle
 10
1.0
 20
-72.4931031202
 30
0.0
 40
1.000000000000222
100
AcDbArc
 50
90.7903116748
 51
180.0
  0
ARC
  5
23F
330
1F
100
AcDbEntity
  8
0
  6
CONTINUOUS
 62
     7
100
AcDbCircle
 10
-1.0
 20
-81.6938798197
 30
0.0
 40
1.000000000000006
100
AcDbArc
 50
269.2986877572
 51
0.0
  0
ARC
  5
240
330
1F
100
AcDbEntity
  8
0
  6
CONTINUOUS
 62
     7
100
AcDbCircle
 10
0.0
 20
0.0
 30
0.0
 40
82.69999999996739
100
AcDbArc
 50
265.7013122428
 51
269.2986877572
  0
ARC
  5
241
330
1F
100
AcDbEntity
  8
0
  6
CONTINUOUS
 62
     7
100
AcDbCircle
 10
-6.1238960755
 20
-81.4701656857
 30
0.0
 40
1.000000000000016
100
AcDbArc
 50
175.0
 51
265.7013122428
  0
ARC
  5
242
330
1F
100
AcDbEntity
  8
0
  6
CONTINUOUS
 62
     7
100
AcDbCircle
 10
-7.3143849446
 20
-72.1300892338
 30
0.0
 40
1.000000000000123
100
AcDbArc
 50
355.0
 51
84.2096883253
  0
ARC
  5
243
330
1F
100
AcDbEntity
  8
0
  6
CONTINUOUS
 62
     7
100
AcDbCircle
 10
0.0
 20
0.0
 30
0.0
 40
71.49999999996318
100
AcDbArc
 50
260.7903116748
 51
264.2096883253
  0
ARC
  5
244
330
1F
100
AcDbEntity
  8
0
  6
CONTINUOUS
 62
     7
100
AcDbCircle
 10
-11.6034874972
 20
-71.5654181704
 30
0.0
 40
1.000000000000006
100
AcDbArc
 50
80.7903116748
 51
170.0
  0
ARC
  5
245
330
1F
100
AcDbEntity
  8
0
  6
CONTINUOUS
 62
     7
100
AcDbCircle
 10
-15.1708011102
 20
-80.2791180424
 30
0.0
 40
1.000000000000004
100
AcDbArc
 50
259.2986877572
 51
350.0
  0
ARC
  5
246
330
1F
100
AcDbEntity
  8
0
  6
CONTINUOUS
 62
     7
100
AcDbCircle
 10
0.0
 20
0.0
 30
0.0
 40
82.6999999999726
100
AcDbArc
 50
255.7013122428
 51
259.2986877572
  0
ARC
  5
247
330
1F
100
AcDbEntity
  8
0
  6
CONTINUOUS
 62
     7
100
AcDbCircle
 10
-20.1780061394
 20
-79.1690474127
 30
0.0
 40
0.9999999999999967
100
AcDbArc
 50
165.0
 51
255.7013122428
  0
ARC
  5
248
330
1F
100
AcDbEntity
  8
0
  6
CONTINUOUS
 62
     7
100
AcDbCircle
 10
-19.7285215524
 20
-69.7641414866
 30
0.0
 40
1.000000000000127
100
AcDbArc
 50
345.0
 51
74.2096883253
  0
ARC
  5
249
330
1F
100
AcDbEntity
  8
0
  6
CONTINUOUS
 62
     7
100
AcDbCircle
 10
0.0
 20
0.0
 30
0.0
 40
71.50000000000134
100
AcDbArc
 50
250.7903116748
 51
254.2096883253
  0
ARC
  5
24A
330
1F
100
AcDbEntity
  8
0
  6
CONTINUOUS
 62
     7
100
AcDbCircle
 10
-23.8544088985
 20
-68.4632542033
 30
0.0
 40
1.000000000000016
100
AcDbArc
 50
70.7903116748
 51
160.0
  0
ARC
  5
24B
330
1F
100
AcDbEntity
  8
0
  6
CONTINUOUS
 62
     7
100
AcDbCircle
 10
-28.8806451055
 20
-76.4251158866
 30
0.0
 40
1.000000000000005
100
AcDbArc
 50
249.2986877572
 51
340.0
  0
ARC
  5
24C
330
1F
100
AcDbEntity
  8
0
  6
CONTINUOUS
 62
     7
100
AcDbCircle
 10
0.0
 20
-0.0000000001
 30
0.0
 40
82.69999999992966
100
AcDbArc
 50
245.7013122428
 51
249.2986877572
  0
ARC
  5
24D
330
1F
100
AcDbEntity
  8
0
  6
CONTINUOUS
 62
     7
100
AcDbCircle
 10
-33.6190176972
 20
-74.4624176956
 30
0.0
 40
1.000000000000018
100
AcDbArc
 50
155.0
 51
245.7013122429
  0
ARC
  5
24E
330
1F
100
AcDbEntity
  8
0
  6
CONTINUOUS
 62
     7
100
AcDbCircle
 10
-31.5432170159
 20
-65.2784456026
 30
0.0
 40
0.9999999999997679
100
AcDbArc
 50
335.0
 51
64.2096883253
  0
ARC
  5
24F
330
1F
100
AcDbEntity
  8
0
  6
CONTINUOUS
 62
     7
100
AcDbCircle
 10
0.0
 20
0.0
 30
0.0
 40
71.49999999998589
100
AcDbArc
 50
240.7903116748
 51
244.2096883253
  0
ARC
  5
250
330
1F
100
AcDbEntity
  8
0
  6
CONTINUOUS
 62
     7
100
AcDbCircle
 10
-35.3805261563
 20
-63.2808689013
 30
0.0
 40
1.000000000000016
100
AcDbArc
 50
60.7903116748
 51
150.0
  0
ARC
  5
251
330
1F
100
AcDbEntity
  8
0
  6
CONTINUOUS
 62
     7
100
AcDbCircle
 10
-41.7129653136
 20
-70.2489752576
 30
0.0
 40
0.9999999999999765
100
AcDbArc
 50
239.2986877572
 51
330.0
  0
ARC
  5
252
330
1F
100
AcDbEntity
  8
0
  6
CONTINUOUS
 62
     7
100
AcDbCircle
 10
0.0
 20
0.0
 30
0.0
 40
82.69999999999608
100
AcDbArc
 50
235.7013122428
 51
239.2986877572
  0
ARC
  5
253
330
1F
100
AcDbEntity
  8
0
  6
CONTINUOUS
 62
     7
100
AcDbCircle
 10
-46.0385324144
 20
-67.4932850966
 30
0.0
 40
0.9999999999999934
100
AcDbArc
 50
145.0
 51
235.7013122428
  0
ARC
  5
254
330
1F
100
AcDbEntity
  8
0
  6
CONTINUOUS
 62
     7
100
AcDbCircle
 10
-42.399487792
 20
-58.8092971814
 30
0.0
 40
1.000000000000095
100
AcDbArc
 50
325.0
 51
54.2096883253
  0
ARC
  5
255
330
1F
100
AcDbEntity
  8
0
  6
CONTINUOUS
 62
     7
100
AcDbCircle
 10
0.0
 20
0.0
 30
0.0
 40
71.49999999998526
100
AcDbArc
 50
230.7903116748
 51
234.2096883253
  0
ARC
  5
256
330
1F
100
AcDbEntity
  8
0
  6
CONTINUOUS
 62
     7
100
AcDbCircle
 10
-45.8316240303
 20
-56.1757264194
 30
0.0
 40
1.000000000000008
100
AcDbArc
 50
50.7903116748
 51
140.0
  0
ARC
  5
257
330
1F
100
AcDbEntity
  8
0
  6
CONTINUOUS
 62
     7
100
AcDbCircle
 10
-53.2778581785
 20
-61.9383550631
 30
0.0
 40
1.000000000000002
100
AcDbArc
 50
229.2986877572
 51
320.0
  0
ARC
  5
258
330
1F
100
AcDbEntity
  8
0
  6
CONTINUOUS
 62
     7
100
AcDbCircle
 10
0.0
 20
0.0
 30
0.0
 40
82.69999999995659
100
AcDbArc
 50
225.7013122428
 51
229.2986877572
  0
ARC
  5
259
330
1F
100
AcDbEntity
  8
0
  6
CONTINUOUS
 62
     7
100
AcDbCircle
 10
-57.0591896208
 20
-58.4734031832
 30
0.0
 40
1.000000000000003
100
AcDbArc
 50
135.0
 51
225.7013122428
  0
ARC
  5
25A
330
1F
100
AcDbEntity
  8
0
  6
CONTINUOUS
 62
     7
100
AcDbCircle
 10
-51.9674715867
 20
-50.5532580244
 30
0.0
 40
1.000000000000096
100
AcDbArc
 50
315.0
 51
44.2096883253
  0
ARC
  5
25B
330
1F
100
AcDbEntity
  8
0
  6
CONTINUOUS
 62
     7
100
AcDbCircle
 10
0.0
 20
0.0
 30
0.0
 40
71.49999999997259
100
AcDbArc
 50
220.7903116748
 51
224.2096883253
  0
ARC
  5
25C
330
1F
100
AcDbEntity
  8
0
  6
CONTINUOUS
 62
     7
100
AcDbCircle
 10
-54.8901512
 20
-47.3637129165
 30
0.0
 40
1.000000000000042
100
AcDbArc
 50
40.7903116748
 51
130.0
  0
ARC
  5
25D
330
1F
100
AcDbEntity
  8
0
  6
CONTINUOUS
 62
     7
100
AcDbCircle
 10
-63.2239302824
 20
-51.7457692922
 30
0.0
 40
0.9999999999999838
100
AcDbArc
 50
219.2986877572
 51
310.0
  0
ARC
  5
25E
330
1F
100
AcDbEntity
  8
0
  6
CONTINUOUS
 62
     7
100
AcDbCircle
 10
0.0
 20
0.0
 30
0.0
 40
82.69999999999133
100
AcDbArc
 50
215.7013122428
 51
219.2986877572
  0
ARC
  5
25F
330
1F
100
AcDbEntity
  8
0
  6
CONTINUOUS
 62
     7
100
AcDbCircle
 10
-66.3461322239
 20
-47.676836503
 30
0.0
 40
0.9999999999999917
100
AcDbArc
 50
125.0
 51
215.7013122428
  0
ARC
  5
260
330
1F
100
AcDbEntity
  8
0
  6
CONTINUOUS
 62
     7
100
AcDbCircle
 10
-59.9564500541
 20
-40.7611837035
 30
0.0
 40
1.000000000000107
100
AcDbArc
 50
305.0
 51
34.2096883253
  0
ARC
  5
261
330
1F
100
AcDbEntity
  8
0
  6
CONTINUOUS
 62
     7
100
AcDbCircle
 10
0.0
 20
0.0
 30
0.0
 40
71.50000000000249
100
AcDbArc
 50
210.7903116748
 51
214.2096883253
  0
ARC
  5
262
330
1F
100
AcDbEntity
  8
0
  6
CONTINUOUS
 62
     7
100
AcDbCircle
 10
-62.2808689013
 20
-37.1125769639
 30
0.0
 40
1.000000000000012
100
AcDbArc
 50
30.7903116748
 51
120.0
  0
ARC
  5
263
330
1F
100
AcDbEntity
  8
0
  6
CONTINUOUS
 62
     7
100
AcDbCircle
 10
-71.2489752576
 20
-39.9809145061
 30
0.0
 40
0.9999999999999849
100
AcDbArc
 50
209.2986877572
 51
300.0
  0
ARC
  5
264
330
1F
100
AcDbEntity
  8
0
  6
CONTINUOUS
 62
     7
100
AcDbCircle
 10
0.0
 20
0.0
 30
0.0
 40
82.6999999999894
100
AcDbArc
 50
205.7013122428
 51
209.2986877572
  0
ARC
  5
265
330
1F
100
AcDbEntity
  8
0
  6
CONTINUOUS
 62
     7
100
AcDbCircle
 10
-73.6171811721
 20
-35.4316332713
 30
0.0
 40
1.000000000000026
100
AcDbArc
 50
115.0
 51
205.7013122428
  0
ARC
  5
266
330
1F
100
AcDbEntity
  8
0
  6
CONTINUOUS
 62
     7
100
AcDbCircle
 10
-66.123682126
 20
-29.7306014418
 30
0.0
 40
1.000000000000021
100
AcDbArc
 50
295.0
 51
24.2096883253
  0
ARC
  5
267
330
1F
100
AcDbEntity
  8
0
  6
CONTINUOUS
 62
     7
100
AcDbCircle
 10
0.0
 20
0.0
 30
0.0
 40
71.49999999999781
100
AcDbArc
 50
200.7903116748
 51
204.2096883253
  0
ARC
  5
268
330
1F
100
AcDbEntity
  8
0
  6
CONTINUOUS
 62
     7
100
AcDbCircle
 10
-67.7792139166
 20
-25.7337941401
 30
0.0
 40
1.000000000000026
100
AcDbArc
 50
20.7903116748
 51
110.0
  0
ARC
  5
269
330
1F
100
AcDbEntity
  8
0
  6
CONTINUOUS
 62
     7
100
AcDbCircle
 10
-77.1091561733
 20
-27.001259864
 30
0.0
 40
0.9999999999999816
100
AcDbArc
 50
199.2986877572
 51
290.0
  0
ARC
  5
26A
330
1F
100
AcDbEntity
  8
0
  6
CONTINUOUS
 62
     7
100
AcDbCircle
 10
-0.0000000001
 20
0.0
 30
0.0
 40
82.69999999991774
100
AcDbArc
 50
195.7013122428
 51
199.2986877572
  0
ARC
  5
26B
330
1F
100
AcDbEntity
  8
0
  6
CONTINUOUS
 62
     7
100
AcDbCircle
 10
-78.6514093225
 20
-22.109857792
 30
0.0
 40
1.000000000000018
100
AcDbArc
 50
105.0
 51
195.7013122428
  0
ARC
  5
26C
330
1F
100
AcDbEntity
  8
0
  6
CONTINUOUS
 62
     7
100
AcDbCircle
 10
-70.2817795768
 20
-17.7966698998
 30
0.0
 40
1.000000000000018
100
AcDbArc
 50
285.0
 51
14.2096883253
  0
ARC
  5
26D
330
1F
100
AcDbEntity
  8
0
  6
CONTINUOUS
 62
     7
100
AcDbCircle
 10
0.0
 20
0.0
 30
0.0
 40
71.50000000003163
100
AcDbArc
 50
190.7903116748
 51
194.2096883253
  0
ARC
  5
26E
330
1F
100
AcDbEntity
  8
0
  6
CONTINUOUS
 62
     7
100
AcDbCircle
 10
-71.218121815
 20
-13.5731030033
 30
0.0
 40
1.000000000000011
100
AcDbArc
 50
10.7903116748
 51
100.0
  0
ARC
  5
26F
330
1F
100
AcDbEntity
  8
0
  6
CONTINUOUS
 62
     7
100
AcDbCircle
 10
-80.6264143978
 20
-13.2011856042
 30
0.0
 40
0.9999999999999982
100
AcDbArc
 50
189.2986877572
 51
280.0
  0
ARC
  5
270
330
1F
100
AcDbEntity
  8
0
  6
CONTINUOUS
 62
     7
100
AcDbCircle
 10
0.0
 20
0.0
 30
0.0
 40
82.69999999998532
100
AcDbArc
 50
185.7013122428
 51
189.2986877572
  0
ARC
  5
271
330
1F
100
AcDbEntity
  8
0
  6
CONTINUOUS
 62
     7
100
AcDbCircle
 10
-81.2958542002
 20
-8.1162854717
 30
0.0
 40
1.000000000000002
100
AcDbArc
 50
95.0
 51
185.7013122428
  0
ARC
  5
272
330
1F
100
AcDbEntity
  8
0
  6
CONTINUOUS
 62
     7
100
AcDbCircle
 10
-72.3044007193
 20
-5.3219955484
 30
0.0
 40
1.000000000000158
100
AcDbArc
 50
275.0
 51
4.2096883253
  0
ARC
  5
273
330
1F
100
AcDbEntity
  8
0
  6
CONTINUOUS
 62
     7
100
AcDbCircle
 10
0.0
 20
0.0
 30
0.0
 40
71.49999999999783
100
AcDbArc
 50
180.7903116748
 51
184.2096883253
  0
ARC
  5
274
330
1F
100
AcDbEntity
  8
0
  6
CONTINUOUS
 62
     7
100
AcDbCircle
 10
-72.4931031202
 20
-1.0
 30
0.0
 40
0.9999999999999766
100
AcDbArc
 50
0.7903116748
 51
90.0
  0
ARC
  5
275
330
1F
100
AcDbEntity
  8
0
  6
CONTINUOUS
 62
     7
100
AcDbCircle
 10
-81.6938798197
 20
1.0
 30
0.0
 40
1.000000000000007
100
AcDbArc
 50
179.2986877572
 51
270.0
  0
ARC
  5
276
330
1F
100
AcDbEntity
  8
0
  6
CONTINUOUS
 62
     7
100
AcDbCircle
 10
0.0
 20
0.0
 30
0.0
 40
82.69999999996158
100
AcDbArc
 50
175.7013122428
 51
179.2986877572
  0
ARC
  5
277
330
1F
100
AcDbEntity
  8
0
  6
CONTINUOUS
 62
     7
100
AcDbCircle
 10
-81.4701656857
 20
6.1238960755
 30
0.0
 40
1.00000000000002
100
AcDbArc
 50
85.0
 51
175.7013122428
  0
ARC
  5
278
330
1F
100
AcDbEntity
  8
0
  6
CONTINUOUS
 62
     7
100
AcDbCircle
 10
-72.1300892338
 20
7.3143849446
 30
0.0
 40
1.000000000000139
100
AcDbArc
 50
265.0
 51
354.2096883253
  0
ARC
  5
279
330
1F
100
AcDbEntity
  8
0
  6
CONTINUOUS
 62
     7
100
AcDbCircle
 10
0.0
 20
0.0
 30
0.0
 40
71.49999999998202
100
AcDbArc
 50
170.7903116748
 51
174.2096883253
  0
ARC
  5
27A
330
1F
100
AcDbEntity
  8
0
  6
CONTINUOUS
 62
     7
100
AcDbCircle
 10
-71.5654181704
 20
11.6034874972
 30
0.0
 40
1.00000000000003
100
AcDbArc
 50
350.7903116748
 51
80.0
  0
ARC
  5
27B
330
1F
100
AcDbEntity
  8
0
  6
CONTINUOUS
 62
     7
100
AcDbCircle
 10
-80.2791180425
 20
15.1708011102
 30
0.0
 40
0.9999999999999925
100
AcDbArc
 50
169.2986877572
 51
260.0
  0
ARC
  5
27C
330
1F
100
AcDbEntity
  8
0
  6
CONTINUOUS
 62
     7
100
AcDbCircle
 10
0.0
 20
0.0
 30
0.0
 40
82.69999999995643
100
AcDbArc
 50
165.7013122428
 51
169.2986877572
  0
ARC
  5
27D
330
1F
100
AcDbEntity
  8
0
  6
CONTINUOUS
 62
     7
100
AcDbCircle
 10
-79.1690474127
 20
20.1780061394
 30
0.0
 40
0.9999999999999821
100
AcDbArc
 50
75.0
 51
165.7013122428
  0
ARC
  5
27E
330
1F
100
AcDbEntity
  8
0
  6
CONTINUOUS
 62
     7
100
AcDbCircle
 10
-69.7641414866
 20
19.7285215524
 30
0.0
 40
1.000000000000125
100
AcDbArc
 50
255.0
 51
344.2096883253
  0
ARC
  5
27F
330
1F
100
AcDbEntity
  8
0
  6
CONTINUOUS
 62
     7
100
AcDbCircle
 10
0.0
 20
0.0
 30
0.0
 40
71.49999999999221
100
AcDbArc
 50
160.7903116748
 51
164.2096883253
  0
ARC
  5
280
330
1F
100
AcDbEntity
  8
0
  6
CONTINUOUS
 62
     7
100
AcDbCircle
 10
-68.4632542033
 20
23.8544088985
 30
0.0
 40
0.9999999999999912
100
AcDbArc
 50
340.7903116748
 51
70.0
  0
ARC
  5
281
330
1F
100
AcDbEntity
  8
0
  6
CONTINUOUS
 62
     7
100
AcDbCircle
 10
-76.4251158866
 20
28.8806451055
 30
0.0
 40
0.9999999999999979
100
AcDbArc
 50
159.2986877572
 51
250.0
  0
ARC
  5
282
330
1F
100
AcDbEntity
  8
0
  6
CONTINUOUS
 62
     7
100
AcDbCircle
 10
0.0
 20
0.0
 30
0.0
 40
82.69999999996536
100
AcDbArc
 50
155.7013122428
 51
159.2986877572
  0
ARC
  5
283
330
1F
100
AcDbEntity
  8
0
  6
CONTINUOUS
 62
     7
100
AcDbCircle
 10
-74.4624176956
 20
33.6190176972
 30
0.0
 40
1.000000000000037
100
AcDbArc
 50
65.0
 51
155.7013122428
  0
ARC
  5
284
330
1F
100
AcDbEntity
  8
0
  6
CONTINUOUS
 62
     7
100
AcDbCircle
 10
-65.2784456026
 20
31.5432170159
 30
0.0
 40
1.00000000000013
100
AcDbArc
 50
245.0
 51
334.2096883253
  0
ARC
  5
285
330
1F
100
AcDbEntity
  8
0
  6
CONTINUOUS
 62
     7
100
AcDbCircle
 10
0.0
 20
0.0
 30
0.0
 40
71.50000000000533
100
AcDbArc
 50
150.7903116748
 51
154.2096883253
  0
ARC
  5
286
330
1F
100
AcDbEntity
  8
0
  6
CONTINUOUS
 62
     7
100
AcDbCircle
 10
-63.2808689013
 20
35.3805261563
 30
0.0
 40
1.000000000000015
100
AcDbArc
 50
330.7903116748
 51
60.0
  0
ARC
  5
287
330
1F
100
AcDbEntity
  8
0
  6
CONTINUOUS
 62
     7
100
AcDbCircle
 10
-70.2489752576
 20
41.7129653136
 30
0.0
 40
1.00000000000002
100
AcDbArc
 50
149.2986877572
 51
240.0
  0
ARC
  5
288
330
1F
100
AcDbEntity
  8
0
  6
CONTINUOUS
 62
     7
100
AcDbCircle
 10
-0.0000000001
 20
0.0
 30
0.0
 40
82.69999999992879
100
AcDbArc
 50
145.7013122428
 51
149.2986877572
  0
ARC
  5
289
330
1F
100
AcDbEntity
  8
0
  6
CONTINUOUS
 62
     7
100
AcDbCircle
 10
-67.4932850966
 20
46.0385324144
 30
0.0
 40
0.9999999999999849
100
AcDbArc
 50
55.0
 51
145.7013122428
  0
ARC
  5
28A
330
1F
100
AcDbEntity
  8
0
  6
CONTINUOUS
 62
     7
100
AcDbCircle
 10
-58.8092971814
 20
42.399487792
 30
0.0
 40
1.000000000000137
100
AcDbArc
 50
235.0
 51
324.2096883253
  0
ARC
  5
28B
330
1F
100
AcDbEntity
  8
0
  6
CONTINUOUS
 62
     7
100
AcDbCircle
 10
0.0
 20
0.0
 30
0.0
 40
71.49999999998678
100
AcDbArc
 50
140.7903116748
 51
144.2096883253
  0
ARC
  5
28C
330
1F
100
AcDbEntity
  8
0
  6
CONTINUOUS
 62
     7
100
AcDbCircle
 10
-56.1757264194
 20
45.8316240303
 30
0.0
 40
1.000000000000036
100
AcDbArc
 50
320.7903116748
 51
50.0
  0
ARC
  5
28D
330
1F
100
AcDbEntity
  8
0
  6
CONTINUOUS
 62
     7
100
AcDbCircle
 10
-61.9383550631
 20
53.2778581784
 30
0.0
 40
0.9999999999999784
100
AcDbArc
 50
139.2986877572
 51
230.0
  0
ARC
  5
28E
330
1F
100
AcDbEntity
  8
0
  6
CONTINUOUS
 62
     7
100
AcDbCircle
 10
0.0
 20
0.0
 30
0.0
 40
82.69999999998309
100
AcDbArc
 50
135.7013122428
 51
139.2986877572
  0
ARC
  5
28F
330
1F
100
AcDbEntity
  8
0
  6
CONTINUOUS
 62
     7
100
AcDbCircle
 10
-58.4734031832
 20
57.0591896208
 30
0.0
 40
0.999999999999998
100
AcDbArc
 50
45.0
 51
135.7013122428
  0
ARC
  5
290
330
1F
100
AcDbEntity
  8
0
  6
CONTINUOUS
 62
     7
100
AcDbCircle
 10
-50.5532580244
 20
51.9674715867
 30
0.0
 40
1.000000000000174
100
AcDbArc
 50
225.0
 51
314.2096883253
  0
ARC
  5
291
330
1F
100
AcDbEntity
  8
0
  6
CONTINUOUS
 62
     7
100
AcDbCircle
 10
0.0
 20
0.0
 30
0.0
 40
71.49999999997456
100
AcDbArc
 50
130.7903116748
 51
134.2096883253
  0
ARC
  5
292
330
1F
100
AcDbEntity
  8
0
  6
CONTINUOUS
 62
     7
100
AcDbCircle
 10
-47.3637129165
 20
54.8901512
 30
0.0
 40
1.000000000000046
100
AcDbArc
 50
310.7903116748
 51
40.0
  0
ARC
  5
293
330
1F
100
AcDbEntity
  8
0
  6
CONTINUOUS
 62
     7
100
AcDbCircle
 10
-51.7457692922
 20
63.2239302824
 30
0.0
 40
1.000000000000008
100
AcDbArc
 50
129.2986877572
 51
220.0
  0
ARC
  5
294
330
1F
100
AcDbEntity
  8
0
  6
CONTINUOUS
 62
     7
100
AcDbCircle
 10
0.0
 20
0.0
 30
0.0
 40
82.69999999998879
100
AcDbArc
 50
125.7013122428
 51
129.2986877572
  0
ARC
  5
295
330
1F
100
AcDbEntity
  8
0
  6
CONTINUOUS
 62
     7
100
AcDbCircle
 10
-47.676836503
 20
66.3461322239
 30
0.0
 40
1.000000000000023
100
AcDbArc
 50
35.0
 51
125.7013122428
  0
ARC
  5
296
330
1F
100
AcDbEntity
  8
0
  6
CONTINUOUS
 62
     7
100
AcDbCircle
 10
-40.7611837035
 20
59.9564500541
 30
0.0
 40
1.000000000000102
100
AcDbArc
 50
215.0
 51
304.2096883253
  0
ARC
  5
297
330
1F
100
AcDbEntity
  8
0
  6
CONTINUOUS
 62
     7
100
AcDbCircle
 10
0.0
 20
0.0
 30
0.0
 40
71.50000000000308
100
AcDbArc
 50
120.7903116748
 51
124.2096883253
  0
ARC
  5
298
330
1F
100
AcDbEntity
  8
0
  6
CONTINUOUS
 62
     7
100
AcDbCircle
 10
-37.1125769639
 20
62.2808689013
 30
0.0
 40
1.00000000000001
100
AcDbArc
 50
300.7903116748
 51
30.0
  0
ARC
  5
299
330
1F
100
AcDbEntity
  8
0
  6
CONTINUOUS
 62
     7
100
AcDbCircle
 10
-39.9809145061
 20
71.2489752576
 30
0.0
 40
1.000000000000016
100
AcDbArc
 50
119.2986877572
 51
210.0
  0
ARC
  5
29A
330
1F
100
AcDbEntity
  8
0
  6
CONTINUOUS
 62
     7
100
AcDbCircle
 10
0.0
 20
0.0
 30
0.0
 40
82.69999999997691
100
AcDbArc
 50
115.7013122428
 51
119.2986877572
  0
ARC
  5
29B
330
1F
100
AcDbEntity
  8
0
  6
CONTINUOUS
 62
     7
100
AcDbCircle
 10
-35.4316332713
 20
73.6171811721
 30
0.0
 40
0.9999999999999811
100
AcDbArc
 50
25.0
 51
115.7013122428
  0
ARC
  5
29C
330
1F
100
AcDbEntity
  8
0
  6
CONTINUOUS
 62
     7
100
AcDbCircle
 10
-29.7306014418
 20
66.123682126
 30
0.0
 40
1.000000000000105
100
AcDbArc
 50
205.0
 51
294.2096883253
  0
ARC
  5
29D
330
1F
100
AcDbEntity
  8
0
  6
CONTINUOUS
 62
     7
100
AcDbCircle
 10
0.0
 20
0.0
 30
0.0
 40
71.49999999999278
100
AcDbArc
 50
110.7903116748
 51
114.2096883253
  0
ARC
  5
29E
330
1F
100
AcDbEntity
  8
0
  6
CONTINUOUS
 62
     7
100
AcDbCircle
 10
-25.7337941401
 20
67.7792139166
 30
0.0
 40
1.000000000000022
100
AcDbArc
 50
290.7903116748
 51
20.0
  0
ARC
  5
29F
330
1F
100
AcDbEntity
  8
0
  6
CONTINUOUS
 62
     7
100
AcDbCircle
 10
-27.001259864
 20
77.1091561733
 30
0.0
 40
0.9999999999999958
100
AcDbArc
 50
109.2986877572
 51
200.0
  0
ARC
  5
2A0
330
1F
100
AcDbEntity
  8
0
  6
CONTINUOUS
 62
     7
100
AcDbCircle
 10
0.0
 20
0.0
 30
0.0
 40
82.69999999996956
100
AcDbArc
 50
105.7013122428
 51
109.2986877572
  0
ARC
  5
2A1
330
1F
100
AcDbEntity
  8
0
  6
CONTINUOUS
 62
     7
100
AcDbCircle
 10
-22.109857792
 20
78.6514093225
 30
0.0
 40
1.000000000000018
100
AcDbArc
 50
15.0
 51
105.7013122428
  0
ARC
  5
2A2
330
1F
100
AcDbEntity
  8
0
  6
CONTINUOUS
 62
     7
100
AcDbCircle
 10
-17.7966698998
 20
70.2817795768
 30
0.0
 40
1.000000000000108
100
AcDbArc
 50
195.0
 51
284.2096883253
  0
ARC
  5
2A3
330
1F
100
AcDbEntity
  8
0
  6
CONTINUOUS
 62
     7
100
AcDbCircle
 10
0.0
 20
0.0
 30
0.0
 40
71.50000000000189
100
AcDbArc
 50
90.7904345874
 51
104.2096883253
  0
ARC
  5
2A4
330
1F
100
AcDbEntity
  8
0
  6
CONTINUOUS
 62
     7
100
AcDbCircle
 10
-1.0
 20
72.4931031202
 30
0.0
 40
0.999999999999995
100
AcDbArc
 50
270.7903116748
 51
0.0
  0
ENDSEC
  0
SECTION
  2
OBJECTS
  0
DICTIONARY
  5
C
330
0
100
AcDbDictionary
  3
ACAD_GROUP
350
D
  3
ACAD_MLINESTYLE
350
17
  3
ACAD_SCALELIST
350
47
  3
DWGPROPS
350
2A5
  0
DICTIONARY
  5
D
102
{ACAD_REACTORS
330
C
102
}
330
C
100
AcDbDictionary
  0
DICTIONARY
  5
17
102
{ACAD_REACTORS
330
C
102
}
330
C
100
AcDbDictionary
  3
STANDARD
350
18
  0
DICTIONARY
  5
47
102
{ACAD_REACTORS
330
C
102
}
330
C
100
AcDbDictionary
  0
XRECORD
  5
2A5
102
{ACAD_REACTORS
330
C
102
}
330
C
100
AcDbXrecord
  1
DWGPROPS COOKIE
  2

  3

  4

  6

  7

  8
a1035160
  9

300
=
301
=
302
=
303
=
304
=
305
=
306
=
307
=
308
=
309
=
 40
0.0
 41
2460277.797200752
 42
2460277.797285127
  1

 90
        0
  0
MLINESTYLE
  5
18
102
{ACAD_REACTORS
330
17
102
}
330
17
100
AcDbMlineStyle
  2
Standard
 70
     0
  3

 62
   256
 51
90.0
 52
90.0
 71
     2
 49
0.5
 62
   256
  6
BYLAYER
 49
-0.5
 62
   256
  6
BYLAYER
  0
ENDSEC
  0
EOF
